<svg width="18" height="16" viewBox="0 0 18 16" fill="none" xmlns="http://www.w3.org/2000/svg">
<path d="M0.500001 8.00077C0.506084 8.6584 0.771056 9.28715 1.2375 9.75077L6.6 15.1258C6.8342 15.3586 7.15102 15.4893 7.48125 15.4893C7.81148 15.4893 8.1283 15.3586 8.3625 15.1258C8.47966 15.0096 8.57265 14.8713 8.63611 14.719C8.69957 14.5667 8.73225 14.4033 8.73225 14.2383C8.73225 14.0733 8.69957 13.9099 8.63611 13.7575C8.57265 13.6052 8.47966 13.467 8.3625 13.3508L4.25 9.25077L16.75 9.25077C17.0815 9.25077 17.3995 9.11908 17.6339 8.88466C17.8683 8.65024 18 8.3323 18 8.00077C18 7.66925 17.8683 7.35131 17.6339 7.11689C17.3995 6.88247 17.0815 6.75078 16.75 6.75078L4.25 6.75077L8.3625 2.63828C8.59788 2.40456 8.73077 2.0869 8.73195 1.7552C8.73312 1.4235 8.60247 1.10491 8.36875 0.869531C8.13503 0.634151 7.81738 0.501257 7.48567 0.500085C7.15397 0.498913 6.83538 0.62956 6.6 0.863282L1.2375 6.23828C0.768016 6.70496 0.502792 7.3388 0.500001 8.00077V8.00077Z" fill="#202020"/>
</svg>
