<svg width="14" height="9" viewBox="0 0 14 9" fill="none" xmlns="http://www.w3.org/2000/svg">
<path d="M13.7098 1.21C13.6169 1.11627 13.5063 1.04187 13.3844 0.991106C13.2625 0.940338 13.1318 0.9142 12.9998 0.9142C12.8678 0.9142 12.7371 0.940338 12.6152 0.991106C12.4934 1.04187 12.3828 1.11627 12.2898 1.21L7.70982 5.78999C7.61685 5.88372 7.50625 5.95811 7.38439 6.00888C7.26253 6.05965 7.13183 6.08579 6.99982 6.08579C6.86781 6.08579 6.7371 6.05965 6.61524 6.00888C6.49338 5.95811 6.38278 5.88372 6.28982 5.78999L1.70982 1.21C1.61685 1.11627 1.50625 1.04187 1.38439 0.991106C1.26253 0.940338 1.13183 0.9142 0.999816 0.9142C0.867804 0.9142 0.737098 0.940338 0.615239 0.991106C0.49338 1.04187 0.382779 1.11627 0.289816 1.21C0.103565 1.39736 -0.000976562 1.65081 -0.000976562 1.915C-0.000976562 2.17918 0.103565 2.43263 0.289816 2.61999L4.87982 7.20999C5.44232 7.77179 6.20481 8.08734 6.99982 8.08734C7.79482 8.08734 8.55732 7.77179 9.11982 7.20999L13.7098 2.61999C13.8961 2.43263 14.0006 2.17918 14.0006 1.915C14.0006 1.65081 13.8961 1.39736 13.7098 1.21Z" fill="#202020"/>
</svg>
