<svg width="60" height="60" viewBox="0 0 60 60" fill="none" xmlns="http://www.w3.org/2000/svg">
<rect x="0.25" y="0.25" width="59.5" height="59.5" rx="19.75" fill="white"/>
<rect x="0.25" y="0.25" width="59.5" height="59.5" rx="19.75" stroke="#202020" stroke-width="0.5"/>
<path d="M36 30.0001C35.9951 29.474 35.7832 28.971 35.41 28.6001L31.12 24.3001C30.9326 24.1138 30.6792 24.0093 30.415 24.0093C30.1508 24.0093 29.8974 24.1138 29.71 24.3001C29.6163 24.393 29.5419 24.5036 29.4911 24.6255C29.4403 24.7474 29.4142 24.8781 29.4142 25.0101C29.4142 25.1421 29.4403 25.2728 29.4911 25.3946C29.5419 25.5165 29.6163 25.6271 29.71 25.7201L33 29.0001H23C22.7348 29.0001 22.4804 29.1054 22.2929 29.293C22.1054 29.4805 22 29.7348 22 30.0001C22 30.2653 22.1054 30.5196 22.2929 30.7072C22.4804 30.8947 22.7348 31.0001 23 31.0001H33L29.71 34.2901C29.5217 34.477 29.4154 34.7312 29.4144 34.9965C29.4135 35.2619 29.518 35.5168 29.705 35.7051C29.892 35.8934 30.1461 35.9997 30.4115 36.0006C30.6768 36.0016 30.9317 35.897 31.12 35.7101L35.41 31.4101C35.7856 31.0367 35.9978 30.5296 36 30.0001Z" fill="#202020"/>
</svg>
