<svg width="100" height="100" viewBox="0 0 100 100" fill="none" xmlns="http://www.w3.org/2000/svg">
<path d="M81.6667 10H18.3333C16.1237 10.0018 14.0051 10.8803 12.4427 12.4427C10.8803 14.0051 10.0018 16.1237 10 18.3333V90H90V18.3333C90 13.7367 86.2633 10 81.6667 10ZM86.6667 18.3333V26.6667H60V13.3333H81.6667C84.4233 13.3333 86.6667 15.5767 86.6667 18.3333ZM43.3333 13.3333H56.6667V40H43.3333V13.3333ZM18.3333 13.3333H40V26.6667H13.3333V18.3333C13.3333 15.5767 15.5767 13.3333 18.3333 13.3333ZM13.3333 86.6667V30H40V43.3333H60V30H86.6667V86.6667H13.3333ZM60 73.3333H76.6667V76.6667H60V73.3333Z" fill="#202020"/>
</svg>
