<svg width="24" height="24" viewBox="0 0 24 24" fill="none" xmlns="http://www.w3.org/2000/svg">
<circle cx="12" cy="12" r="11.75" fill="#F8F1F4" stroke="#202020" stroke-width="0.5"/>
<g clip-path="url(#clip0_2002_3817)">
<path d="M16.5 9H15C15 8.20435 14.6839 7.44129 14.1213 6.87868C13.5587 6.31607 12.7956 6 12 6C11.2044 6 10.4413 6.31607 9.87868 6.87868C9.31607 7.44129 9 8.20435 9 9H7.5C7.10218 9 6.72064 9.15804 6.43934 9.43934C6.15804 9.72064 6 10.1022 6 10.5V15.5C6.00079 16.1628 6.26444 16.7982 6.73311 17.2669C7.20178 17.7356 7.8372 17.9992 8.5 18H15.5C16.1628 17.9992 16.7982 17.7356 17.2669 17.2669C17.7356 16.7982 17.9992 16.1628 18 15.5V10.5C18 10.1022 17.842 9.72064 17.5607 9.43934C17.2794 9.15804 16.8978 9 16.5 9ZM12 7C12.5304 7 13.0391 7.21071 13.4142 7.58579C13.7893 7.96086 14 8.46957 14 9H10C10 8.46957 10.2107 7.96086 10.5858 7.58579C10.9609 7.21071 11.4696 7 12 7ZM17 15.5C17 15.8978 16.842 16.2794 16.5607 16.5607C16.2794 16.842 15.8978 17 15.5 17H8.5C8.10218 17 7.72064 16.842 7.43934 16.5607C7.15804 16.2794 7 15.8978 7 15.5V10.5C7 10.3674 7.05268 10.2402 7.14645 10.1464C7.24021 10.0527 7.36739 10 7.5 10H9V11C9 11.1326 9.05268 11.2598 9.14645 11.3536C9.24021 11.4473 9.36739 11.5 9.5 11.5C9.63261 11.5 9.75979 11.4473 9.85355 11.3536C9.94732 11.2598 10 11.1326 10 11V10H14V11C14 11.1326 14.0527 11.2598 14.1464 11.3536C14.2402 11.4473 14.3674 11.5 14.5 11.5C14.6326 11.5 14.7598 11.4473 14.8536 11.3536C14.9473 11.2598 15 11.1326 15 11V10H16.5C16.6326 10 16.7598 10.0527 16.8536 10.1464C16.9473 10.2402 17 10.3674 17 10.5V15.5Z" fill="#202020"/>
</g>
<defs>
<clipPath id="clip0_2002_3817">
<rect width="12" height="12" fill="white" transform="translate(6 6)"/>
</clipPath>
</defs>
</svg>
