<svg width="100" height="100" viewBox="0 0 100 100" fill="none" xmlns="http://www.w3.org/2000/svg">
<path d="M80 44.502H74.5V33.002C74.5 26.5041 71.9187 20.2725 67.3241 15.6779C62.7295 11.0832 56.4978 8.50195 50 8.50195C43.5022 8.50195 37.2705 11.0832 32.6759 15.6779C28.0813 20.2725 25.5 26.5041 25.5 33.002V44.502H20H18.5V46.002V86.002V87.502H20H80H81.5V86.002V46.002V44.502H80ZM36.5 33.002C36.5 29.4215 37.9224 25.9877 40.4541 23.4559C42.9858 20.9242 46.4196 19.502 50 19.502C53.5804 19.502 57.0142 20.9242 59.5459 23.4559C62.0776 25.9877 63.5 29.4215 63.5 33.002V44.502H36.5V33.002Z" stroke="#353535" stroke-width="3"/>
</svg>
