<svg width="100" height="100" viewBox="0 0 100 100" fill="none" xmlns="http://www.w3.org/2000/svg">
<path d="M90.625 4.10156H9.375C7.97691 4.10322 6.63655 4.65934 5.64794 5.64794C4.65934 6.63655 4.10322 7.97691 4.10156 9.375V90.625C4.10322 92.0231 4.65934 93.3634 5.64794 94.3521C6.63655 95.3407 7.97691 95.8968 9.375 95.8984H90.625C92.0231 95.8968 93.3634 95.3407 94.3521 94.3521C95.3407 93.3634 95.8968 92.0231 95.8984 90.625V9.375C95.8968 7.97691 95.3407 6.63655 94.3521 5.64794C93.3634 4.65934 92.0231 4.10322 90.625 4.10156ZM93.1641 90.625C93.1632 91.2981 92.8955 91.9435 92.4195 92.4195C91.9435 92.8955 91.2981 93.1632 90.625 93.1641H9.375C8.70185 93.1632 8.05651 92.8955 7.58053 92.4195C7.10454 91.9435 6.83676 91.2981 6.83594 90.625V9.375C6.83676 8.70185 7.10454 8.05651 7.58053 7.58053C8.05651 7.10454 8.70185 6.83676 9.375 6.83594H90.625C91.2981 6.83676 91.9435 7.10454 92.4195 7.58053C92.8955 8.05651 93.1632 8.70185 93.1641 9.375V90.625Z" fill="#202020"/>
<path d="M50 19.7266C44.0125 19.7266 38.1594 21.5021 33.181 24.8286C28.2026 28.155 24.3223 32.8831 22.031 38.4149C19.7397 43.9466 19.1402 50.0336 20.3083 55.9061C21.4764 61.7785 24.3596 67.1727 28.5935 71.4066C32.8273 75.6404 38.2215 78.5236 44.094 79.6917C49.9664 80.8599 56.0534 80.2603 61.5852 77.969C67.1169 75.6777 71.845 71.7975 75.1715 66.819C78.4979 61.8406 80.2734 55.9875 80.2734 50C80.2644 41.9738 77.0719 34.2789 71.3965 28.6035C65.7211 22.9281 58.0262 19.7357 50 19.7266ZM51.3672 77.5047V72.043C51.3672 71.6804 51.2232 71.3326 50.9668 71.0762C50.7104 70.8198 50.3626 70.6758 50 70.6758C49.6374 70.6758 49.2897 70.8198 49.0333 71.0762C48.7769 71.3326 48.6328 71.6804 48.6328 72.043V77.5047C41.5733 77.1557 34.9182 74.1055 30.0452 68.9857C25.1722 63.8658 22.4544 57.0682 22.4544 50C22.4544 42.9318 25.1722 36.1342 30.0452 31.0143C34.9182 25.8945 41.5733 22.8443 48.6328 22.4953V27.957C48.6328 28.3196 48.7769 28.6674 49.0333 28.9238C49.2897 29.1802 49.6374 29.3242 50 29.3242C50.3626 29.3242 50.7104 29.1802 50.9668 28.9238C51.2232 28.6674 51.3672 28.3196 51.3672 27.957V22.4953C58.4268 22.8443 65.0819 25.8945 69.9549 31.0143C74.8279 36.1342 77.5457 42.9318 77.5457 50C77.5457 57.0682 74.8279 63.8658 69.9549 68.9857C65.0819 74.1055 58.4268 77.1557 51.3672 77.5047Z" fill="#202020"/>
<path d="M35.4922 44.3281C34.3704 44.3281 33.2738 44.6608 32.3411 45.284C31.4083 45.9072 30.6814 46.7931 30.2521 47.8295C29.8228 48.8659 29.7104 50.0063 29.9293 51.1065C30.1481 52.2068 30.6883 53.2174 31.4816 54.0106C32.2748 54.8038 33.2854 55.344 34.3857 55.5629C35.4859 55.7817 36.6263 55.6694 37.6627 55.2401C38.6991 54.8108 39.5849 54.0839 40.2082 53.1511C40.8314 52.2184 41.1641 51.1218 41.1641 50C41.1624 48.4962 40.5643 47.0545 39.501 45.9912C38.4377 44.9279 36.996 44.3298 35.4922 44.3281ZM35.4922 52.9375C34.9112 52.9375 34.3433 52.7652 33.8602 52.4424C33.3771 52.1197 33.0006 51.6609 32.7783 51.1241C32.556 50.5874 32.4978 49.9967 32.6111 49.4269C32.7245 48.8571 33.0042 48.3337 33.4151 47.9229C33.8259 47.5121 34.3493 47.2323 34.9191 47.1189C35.4889 47.0056 36.0796 47.0638 36.6163 47.2861C37.1531 47.5084 37.6119 47.8849 37.9346 48.368C38.2574 48.8511 38.4297 49.419 38.4297 50C38.4289 50.7788 38.1191 51.5255 37.5684 52.0762C37.0177 52.6269 36.271 52.9367 35.4922 52.9375ZM64.5078 44.3281C63.386 44.3281 62.2894 44.6608 61.3567 45.284C60.424 45.9072 59.697 46.7931 59.2677 47.8295C58.8384 48.8659 58.7261 50.0063 58.9449 51.1065C59.1638 52.2068 59.704 53.2174 60.4972 54.0106C61.2904 54.8038 62.301 55.344 63.4013 55.5629C64.5015 55.7817 65.6419 55.6694 66.6783 55.2401C67.7147 54.8108 68.6006 54.0839 69.2238 53.1511C69.847 52.2184 70.1797 51.1218 70.1797 50C70.178 48.4962 69.5799 47.0545 68.5166 45.9912C67.4533 44.9279 66.0116 44.3298 64.5078 44.3281ZM64.5078 52.9375C63.9268 52.9375 63.3589 52.7652 62.8758 52.4424C62.3928 52.1197 62.0163 51.6609 61.7939 51.1241C61.5716 50.5874 61.5134 49.9967 61.6268 49.4269C61.7401 48.8571 62.0199 48.3337 62.4307 47.9229C62.8415 47.5121 63.3649 47.2323 63.9347 47.1189C64.5046 47.0056 65.0952 47.0638 65.6319 47.2861C66.1687 47.5084 66.6275 47.8849 66.9503 48.368C67.273 48.8511 67.4453 49.419 67.4453 50C67.4443 50.7788 67.1345 51.5253 66.5838 52.076C66.0331 52.6266 65.2866 52.9365 64.5078 52.9375Z" fill="#202020"/>
</svg>
