<svg width="66" height="82" viewBox="0 0 66 82" fill="none" xmlns="http://www.w3.org/2000/svg">
<path d="M63 37.502H57.5V26.002C57.5 19.5041 54.9187 13.2725 50.3241 8.67787C45.7295 4.08323 39.4978 1.50195 33 1.50195C26.5022 1.50195 20.2705 4.08323 15.6759 8.67787C11.0813 13.2725 8.5 19.5041 8.5 26.002V37.502H3H1.5V39.002V79.002V80.502H3H63H64.5V79.002V39.002V37.502H63ZM19.5 26.002C19.5 22.4215 20.9224 18.9877 23.4541 16.4559C25.9858 13.9242 29.4196 12.502 33 12.502C36.5804 12.502 40.0142 13.9242 42.5459 16.4559C45.0776 18.9877 46.5 22.4215 46.5 26.002V37.502H19.5V26.002Z" stroke="#353535" stroke-width="3"/>
</svg>
