<svg width="100" height="100" viewBox="0 0 100 100" fill="none" xmlns="http://www.w3.org/2000/svg">
<path d="M76.3581 39.7383L76.3581 39.7384L76.3642 39.7477C76.6606 40.2002 76.7088 40.7746 76.484 41.2893C76.4837 41.2901 76.4833 41.291 76.4829 41.2919L51.4867 97.5332C51.4867 97.5333 51.4866 97.5334 51.4866 97.5335C51.2196 98.1324 50.6318 98.5 50.0006 98.5C49.906 98.5 49.79 98.4889 49.6539 98.4622C48.9084 98.3002 48.3757 97.6398 48.3757 96.875V62.5005V61.0005H46.8757H25.001C24.4542 61.0005 23.9402 60.7214 23.6411 60.2599L23.6385 60.2559C23.3395 59.7976 23.2932 59.2121 23.5136 58.7201L23.5155 58.716L48.5141 2.46916C48.5143 2.46865 48.5145 2.46815 48.5148 2.46764C48.8314 1.76027 49.5741 1.37464 50.3385 1.53727L50.3394 1.53746C51.0891 1.6965 51.6256 2.35887 51.6256 3.12632V37.5009V39.0009H53.1256L75.0003 39.0009L75.0028 39.0008C75.2724 39.0004 75.5378 39.0677 75.7746 39.1966C76.0114 39.3254 76.2121 39.5117 76.3581 39.7383Z" stroke="#202020" stroke-width="3"/>
</svg>
