<svg width="100" height="99" viewBox="0 0 100 99" fill="none" xmlns="http://www.w3.org/2000/svg">
<g clip-path="url(#clip0_244_1927)">
<path d="M99.2595 49.1232C99.2595 52.6586 92.2818 55.3557 91.5336 58.6639C90.7633 62.0763 95.8669 67.5452 94.3892 70.626C92.9114 73.7069 85.4373 73.1444 83.304 75.8416C81.1707 78.5387 83.4003 85.7101 80.7114 87.8708C78.0225 90.0315 71.5929 86.2317 68.4892 87.7404C65.3855 89.2492 64.3632 96.6814 60.9669 97.4264C57.6818 98.1715 53.5225 91.9538 50.0077 91.9538C46.4929 91.9538 42.3336 98.179 39.0485 97.4264C35.6522 96.6515 34.604 89.2082 31.5262 87.7404C28.4484 86.2726 21.967 90.0166 19.304 87.8671C16.641 85.7176 18.8595 78.5536 16.7114 75.8416C14.5632 73.1295 7.12619 73.7665 5.62619 70.626C4.12619 67.4856 9.25215 62.0577 8.48178 58.6639C7.74104 55.3557 0.755859 52.6586 0.755859 49.1232C0.755859 45.5878 7.73363 42.8906 8.48178 39.5825C9.25215 36.1701 4.14842 30.7012 5.62619 27.6203C7.10397 24.5394 14.5781 25.102 16.7114 22.4048C18.8447 19.7076 16.6151 12.5363 19.304 10.3756C21.9929 8.21483 28.4225 12.0147 31.5262 10.5059C34.6299 8.99715 35.6522 1.56503 39.0485 0.819952C42.3336 0.0748766 46.4929 6.29255 50.0077 6.29255C53.5225 6.29255 57.6818 0.0674258 60.9669 0.819952C64.3632 1.59483 65.4114 9.03813 68.4892 10.5059C71.567 11.9737 78.0485 8.22974 80.7114 10.3793C83.3744 12.5288 81.1559 19.6927 83.304 22.4048C85.4522 25.1169 92.8892 24.4798 94.3892 27.6203C95.8892 30.7608 90.7633 36.1887 91.5336 39.5825C92.2818 42.8906 99.2595 45.5878 99.2595 49.1232Z" stroke="#202020" stroke-width="3" stroke-miterlimit="10"/>
</g>
<defs>
<clipPath id="clip0_244_1927">
<rect width="100" height="98.2456" fill="white"/>
</clipPath>
</defs>
</svg>
