<svg width="235" height="235" viewBox="0 0 235 235" fill="none" xmlns="http://www.w3.org/2000/svg">
<path d="M218.723 125.418C218.783 124.447 219.013 123.552 219.413 122.732C219.812 121.927 220.364 121.234 221.069 120.652C221.774 120.084 222.623 119.649 223.617 119.346C224.624 119.059 225.758 118.955 227.02 119.033C228.281 119.111 229.386 119.368 230.334 119.805C231.295 120.258 232.09 120.823 232.717 121.503C233.345 122.182 233.799 122.952 234.081 123.813C234.377 124.676 234.496 125.564 234.44 126.477C234.405 127.042 234.337 127.555 234.236 128.014C234.135 128.474 234.015 128.874 233.878 129.215C233.755 129.556 233.628 129.847 233.497 130.086C233.38 130.326 233.274 130.509 233.179 130.634L231.925 130.076C232.165 129.727 232.404 129.276 232.642 128.723C232.894 128.186 233.045 127.504 233.096 126.678C233.154 125.735 233.046 124.899 232.771 124.169C232.495 123.453 232.082 122.839 231.531 122.324C230.981 121.81 230.315 121.405 229.533 121.109C228.75 120.828 227.872 120.657 226.901 120.597C225.901 120.535 224.987 120.595 224.161 120.777C223.349 120.974 222.645 121.287 222.051 121.716C221.457 122.145 220.987 122.684 220.642 123.332C220.295 123.995 220.095 124.761 220.041 125.631C219.982 126.588 220.02 127.39 220.154 128.039C220.302 128.703 220.46 129.208 220.628 129.553L219.341 129.888C219.275 129.782 219.199 129.603 219.113 129.35C219.041 129.098 218.966 128.78 218.888 128.397C218.81 128.014 218.757 127.574 218.729 127.078C218.687 126.58 218.685 126.027 218.723 125.418Z" fill="#202020"/>
<path d="M218.092 141.063L216.828 140.832L218.371 132.388L233.224 135.103L232.958 136.56L219.369 134.076L218.092 141.063Z" fill="#202020"/>
<path d="M230.649 147.422L230.267 148.854L215.678 144.96L216.06 143.528L230.649 147.422Z" fill="#202020"/>
<path d="M228.966 153.249L228.509 154.659L214.147 149.998L214.604 148.588L228.966 153.249Z" fill="#202020"/>
<path d="M214.701 168.513C213.52 167.988 212.556 167.351 211.807 166.605C211.058 165.858 210.511 165.05 210.167 164.181C209.829 163.332 209.682 162.447 209.726 161.529C209.769 160.61 209.986 159.712 210.375 158.837C210.765 157.961 211.287 157.199 211.941 156.552C212.595 155.905 213.353 155.416 214.216 155.085C215.086 154.773 216.049 154.645 217.105 154.701C218.161 154.758 219.28 155.049 220.461 155.575C221.642 156.101 222.6 156.734 223.336 157.475C224.084 158.221 224.627 159.02 224.965 159.869C225.309 160.738 225.46 161.632 225.417 162.551C225.373 163.47 225.157 164.367 224.767 165.243C224.377 166.119 223.855 166.88 223.201 167.527C222.548 168.174 221.786 168.654 220.915 168.966C220.052 169.297 219.093 169.435 218.037 169.378C216.994 169.327 215.882 169.039 214.701 168.513ZM215.339 167.08C216.268 167.494 217.151 167.743 217.987 167.829C218.836 167.921 219.617 167.863 220.33 167.656C221.042 167.448 221.67 167.092 222.213 166.586C222.764 166.1 223.21 165.472 223.553 164.702C223.895 163.933 224.066 163.174 224.065 162.426C224.071 161.698 223.913 160.999 223.591 160.331C223.268 159.663 222.788 159.044 222.151 158.474C221.528 157.91 220.752 157.422 219.823 157.008C218.894 156.595 218.005 156.342 217.155 156.25C216.319 156.164 215.545 156.225 214.832 156.432C214.12 156.64 213.488 156.987 212.938 157.473C212.382 157.973 211.932 158.607 211.59 159.377C211.247 160.147 211.079 160.899 211.086 161.633C211.087 162.381 211.249 163.089 211.572 163.757C211.894 164.426 212.367 165.042 212.991 165.605C213.628 166.175 214.411 166.667 215.339 167.08Z" fill="#202020"/>
<path d="M200.835 176.485C201.411 176.53 202.105 176.554 202.915 176.559C203.717 176.576 204.579 176.58 205.501 176.571C206.436 176.57 207.399 176.552 208.39 176.518C209.392 176.492 210.371 176.45 211.325 176.393C212.283 176.355 213.195 176.296 214.06 176.215C214.917 176.147 215.668 176.07 216.311 175.984L205.626 169.075L206.419 167.849L219.098 176.048L218.459 177.036C217.362 177.209 216.127 177.353 214.755 177.469C213.387 177.605 212.006 177.707 210.613 177.775C209.232 177.85 207.901 177.889 206.62 177.891C205.331 177.905 204.229 177.884 203.313 177.828L213.632 184.501L212.84 185.727L200.16 177.528L200.835 176.485Z" fill="#202020"/>
<path d="M197.791 180.593L209.251 190.425L203.576 197.04L202.601 196.202L207.311 190.712L203.325 187.293L199.126 192.188L198.167 191.365L202.366 186.471L197.802 182.555L192.723 188.475L191.748 187.638L197.791 180.593Z" fill="#202020"/>
<path d="M185.974 193.246L195.68 204.812L189.088 210.344L188.261 209.359L193.719 204.78L190.302 200.707L185.461 204.769L184.635 203.784L189.475 199.722L184.84 194.198L185.974 193.246Z" fill="#202020"/>
<path d="M185.808 212.673L184.6 213.531L175.852 201.224L177.06 200.366L185.808 212.673Z" fill="#202020"/>
<path d="M172.574 221.061L171.916 219.956L176.071 217.481L169.002 205.613L170.275 204.855L177.344 216.722L181.5 214.247L182.158 215.351L172.574 221.061Z" fill="#202020"/>
<path d="M157.18 212.558C157.047 212.251 157.035 211.948 157.143 211.648C157.237 211.354 157.458 211.133 157.805 210.983C158.151 210.833 158.471 210.822 158.763 210.949C159.042 211.082 159.247 211.301 159.38 211.608C159.512 211.915 159.531 212.215 159.437 212.509C159.329 212.809 159.101 213.034 158.755 213.183C158.408 213.333 158.095 213.341 157.816 213.209C157.524 213.082 157.312 212.865 157.18 212.558Z" fill="#202020"/>
<path d="M149.774 230.254C147.717 230.828 146.076 230.864 144.85 230.362C143.624 229.86 142.809 228.888 142.407 227.447C142.177 226.622 142.126 225.874 142.256 225.205C142.39 224.549 142.679 223.963 143.123 223.447C143.571 222.945 144.17 222.499 144.921 222.108C145.661 221.736 146.528 221.411 147.521 221.133L149.494 220.583L147.924 214.958L149.351 214.56L153.335 228.83C152.87 229.111 152.31 229.373 151.654 229.616C150.988 229.878 150.361 230.09 149.774 230.254ZM149.365 229.034C149.897 228.885 150.345 228.737 150.711 228.59C151.067 228.46 151.374 228.345 151.632 228.242L149.84 221.821L148.035 222.325C147.266 222.539 146.585 222.775 145.993 223.03C145.39 223.304 144.906 223.62 144.538 223.979C144.161 224.356 143.914 224.795 143.797 225.295C143.68 225.795 143.716 226.381 143.903 227.052C144.083 227.696 144.364 228.19 144.747 228.536C145.116 228.885 145.551 229.118 146.051 229.235C146.541 229.37 147.072 229.41 147.645 229.355C148.218 229.301 148.791 229.194 149.365 229.034Z" fill="#202020"/>
<path d="M129.23 220.237L129.028 218.967L137.506 217.618L139.879 232.529L138.416 232.762L136.245 219.12L129.23 220.237Z" fill="#202020"/>
<path d="M116.36 219.599C116.664 220.328 116.953 221.029 117.226 221.702C117.499 222.375 117.765 223.033 118.022 223.677L125.359 223.394C125.581 222.731 125.802 222.054 126.022 221.362C126.242 220.671 126.469 219.95 126.702 219.199L128.247 219.14C127.727 220.73 127.239 222.209 126.784 223.579C126.328 224.963 125.884 226.266 125.452 227.49C125.005 228.728 124.564 229.915 124.129 231.051C123.693 232.187 123.228 233.325 122.734 234.463L121.428 234.513C120.847 233.417 120.296 232.319 119.774 231.219C119.252 230.12 118.728 228.97 118.202 227.77C117.662 226.584 117.111 225.319 116.551 223.974C115.991 222.644 115.383 221.206 114.727 219.662L116.36 219.599ZM122.059 232.788C122.562 231.519 123.05 230.228 123.523 228.916C123.981 227.605 124.457 226.191 124.951 224.674L118.528 224.922C119.137 226.396 119.728 227.769 120.301 229.04C120.873 230.312 121.459 231.561 122.059 232.788Z" fill="#202020"/>
<path d="M106.073 221C106.174 221.378 106.326 221.879 106.529 222.503C106.717 223.126 106.936 223.803 107.184 224.535C107.431 225.282 107.684 226.043 107.941 226.821C108.198 227.612 108.445 228.351 108.685 229.038C108.924 229.725 109.137 230.329 109.323 230.849C109.51 231.368 109.648 231.736 109.739 231.952C110.143 230.172 110.53 228.229 110.9 226.122C111.254 224.029 111.613 221.826 111.978 219.515L113.428 219.689C112.971 222.399 112.513 224.992 112.055 227.468C111.583 229.942 111.087 232.304 110.568 234.553L109.27 234.397C108.924 233.624 108.563 232.732 108.187 231.722C107.809 230.725 107.444 229.687 107.091 228.606C106.722 227.537 106.373 226.479 106.046 225.43C105.702 224.394 105.405 223.458 105.154 222.624C104.712 223.375 104.209 224.215 103.644 225.142C103.063 226.081 102.474 227.027 101.877 227.98C101.264 228.945 100.656 229.867 100.053 230.745C99.4485 231.638 98.8866 232.419 98.3673 233.088L97.1343 232.94C97.1627 230.632 97.2473 228.221 97.3881 225.707C97.5146 223.191 97.6765 220.563 97.8739 217.822L99.3666 218.001C99.1744 220.333 99.0096 222.559 98.8722 224.678C98.7187 226.811 98.6274 228.789 98.5985 230.614C98.7381 230.426 98.9599 230.102 99.264 229.641C99.568 229.18 99.9176 228.644 100.313 228.033C100.708 227.422 101.124 226.763 101.56 226.054C101.994 225.36 102.42 224.68 102.836 224.013C103.251 223.361 103.631 222.755 103.976 222.197C104.307 221.637 104.566 221.185 104.753 220.842L106.073 221Z" fill="#202020"/>
<path d="M91.0286 231.492L89.5875 231.148L93.0921 216.461L94.5332 216.805L91.0286 231.492Z" fill="#202020"/>
<path d="M80.2267 212.408C80.3194 212.979 80.4587 213.659 80.6447 214.447C80.8169 215.23 81.0159 216.069 81.2417 216.964C81.4626 217.872 81.7062 218.804 81.9724 219.759C82.2339 220.727 82.5049 221.668 82.7855 222.582C83.0476 223.504 83.3196 224.377 83.6015 225.199C83.8698 226.016 84.1212 226.727 84.3558 227.332L88.5562 215.321L89.9341 215.803L84.9498 230.056L83.8392 229.667C83.4132 228.641 82.9824 227.475 82.5468 226.168C82.0927 224.871 81.6687 223.553 81.2749 222.215C80.8763 220.891 80.5253 219.606 80.222 218.362C79.905 217.112 79.6658 216.036 79.5045 215.133L75.448 226.733L74.07 226.251L79.0544 211.998L80.2267 212.408Z" fill="#202020"/>
<path d="M75.58 210.429L68.7309 223.885L60.9639 219.932L61.547 218.786L67.9936 222.068L70.3755 217.388L64.6279 214.463L65.2011 213.336L70.9487 216.262L73.6765 210.903L66.725 207.364L67.3081 206.219L75.58 210.429Z" fill="#202020"/>
<path d="M49.9805 196.459C49.8502 196.828 49.6925 197.327 49.5073 197.957C49.3112 198.577 49.1089 199.259 48.9003 200.004C48.6822 200.759 48.4599 201.53 48.2336 202.317C47.9976 203.115 47.7843 203.865 47.5935 204.567C47.4028 205.269 47.2374 205.887 47.0974 206.421C46.9575 206.955 46.8641 207.337 46.8174 207.567C48.1565 206.326 49.5738 204.942 51.069 203.413C52.5438 201.886 54.0849 200.272 55.6924 198.571L56.79 199.533C54.8815 201.511 53.0388 203.392 51.2617 205.176C49.4737 206.95 47.7303 208.619 46.0314 210.181L45.0486 209.319C45.1998 208.486 45.4059 207.546 45.6667 206.5C45.9179 205.464 46.2034 204.401 46.523 203.309C46.8222 202.219 47.1329 201.149 47.4552 200.099C47.757 199.049 48.0403 198.11 48.3049 197.279C47.5161 197.65 46.6268 198.058 45.6369 198.504C44.6266 198.951 43.6061 199.399 42.5753 199.847C41.524 200.297 40.5014 200.714 39.5076 201.098C38.5042 201.493 37.5992 201.82 36.7927 202.079L35.859 201.26C37.1866 199.371 38.6188 197.43 40.1556 195.435C41.6815 193.431 43.3004 191.354 45.0122 189.204L46.1425 190.195C44.666 192.011 43.2723 193.754 41.9614 195.425C40.6299 197.098 39.4366 198.678 38.3813 200.168C38.6028 200.092 38.9691 199.949 39.4804 199.741C39.9917 199.532 40.583 199.288 41.2542 199.007C41.9255 198.726 42.6411 198.417 43.4013 198.079C44.1518 197.752 44.8873 197.431 45.6078 197.116C46.3187 196.812 46.9742 196.527 47.5744 196.262C48.1636 195.986 48.6326 195.76 48.9812 195.583L49.9805 196.459Z" fill="#202020"/>
<path d="M42.9535 186.747L31.4225 196.495L25.7961 189.839L26.7778 189.01L31.4477 194.534L35.4578 191.144L31.2942 186.219L32.2593 185.403L36.4229 190.328L41.0153 186.446L35.9796 180.489L36.9614 179.659L42.9535 186.747Z" fill="#202020"/>
<path d="M17.3171 177.559L18.3889 176.849L21.0598 180.882L32.5764 173.254L33.3946 174.489L21.8779 182.117L24.5489 186.15L23.4772 186.86L17.3171 177.559Z" fill="#202020"/>
<path d="M24.6666 158.934C24.1294 159.514 23.6116 160.068 23.1133 160.596C22.6149 161.124 22.1262 161.638 21.6473 162.14L24.9537 168.696C25.6485 168.622 26.3563 168.542 27.077 168.455C27.7978 168.368 28.5477 168.275 29.3269 168.175L30.0235 169.556C28.3612 169.743 26.8125 169.914 25.3774 170.069C23.9294 170.23 22.5592 170.368 21.2669 170.482C19.9551 170.591 18.6919 170.683 17.4774 170.759C16.2629 170.834 15.0354 170.884 13.7947 170.908L13.2061 169.741C13.9627 168.757 14.7324 167.8 15.5152 166.868C16.298 165.936 17.1262 164.982 17.9997 164.004C18.8538 163.02 19.7759 161.994 20.7661 160.925C21.7433 159.863 22.7982 158.713 23.9307 157.475L24.6666 158.934ZM15.0374 169.598C16.4013 169.528 17.7782 169.436 19.1679 169.32C20.5511 169.192 22.0349 169.038 23.6193 168.857L20.725 163.118C19.6377 164.284 18.6346 165.392 17.7158 166.441C16.797 167.49 15.9042 168.543 15.0374 169.598Z" fill="#202020"/>
<path d="M17.9804 143.42L19.2104 143.046L21.7057 151.26L7.25849 155.649L6.82783 154.231L20.045 150.216L17.9804 143.42Z" fill="#202020"/>
<path d="M2.04262 133.931L3.30627 133.695L4.19434 138.45L17.7732 135.914L18.0452 137.37L4.46637 139.907L5.35444 144.661L4.0908 144.897L2.04262 133.931Z" fill="#202020"/>
<path d="M16.6332 112.775C16.5956 113.747 16.3864 114.648 16.0056 115.476C15.6253 116.29 15.0892 116.996 14.3975 117.594C13.7063 118.178 12.8674 118.633 11.8809 118.958C10.8805 119.268 9.74889 119.399 8.48612 119.35C7.22335 119.302 6.11301 119.07 5.15511 118.655C4.18325 118.225 3.37582 117.678 2.73281 117.013C2.0898 116.349 1.61763 115.589 1.3163 114.734C1.00045 113.879 0.860184 112.994 0.895491 112.08C0.917349 111.514 0.973531 111 1.06404 110.538C1.15454 110.077 1.26458 109.674 1.39415 109.33C1.5092 108.985 1.62955 108.692 1.75519 108.45C1.86632 108.207 1.96795 108.022 2.06008 107.895L3.32613 108.423C3.0944 108.778 2.866 109.234 2.64094 109.792C2.40193 110.335 2.26645 111.021 2.2345 111.848C2.19807 112.791 2.32579 113.625 2.61765 114.349C2.91007 115.058 3.33732 115.663 3.89941 116.164C4.4615 116.666 5.13693 117.055 5.9257 117.333C6.71504 117.596 7.59594 117.746 8.56842 117.784C9.56992 117.822 10.4816 117.741 11.3034 117.54C12.1112 117.324 12.8071 116.995 13.3911 116.552C13.9751 116.11 14.4324 115.561 14.763 114.905C15.0941 114.234 15.2765 113.464 15.3101 112.593C15.3471 111.635 15.2909 110.833 15.1414 110.188C14.9779 109.527 14.8082 109.027 14.6324 108.685L15.9112 108.321C15.9798 108.425 16.0602 108.602 16.1523 108.853C16.2298 109.103 16.3121 109.419 16.3992 109.8C16.4862 110.182 16.5492 110.62 16.5882 111.116C16.6417 111.612 16.6567 112.165 16.6332 112.775Z" fill="#202020"/>
<path d="M16.8951 97.1342L18.1646 97.3362L16.8151 105.814L1.90371 103.44L2.13661 101.977L15.7785 104.149L16.8951 97.1342Z" fill="#202020"/>
<path d="M4.181 91.0915L4.53036 89.6517L19.2037 93.2122L18.8543 94.652L4.181 91.0915Z" fill="#202020"/>
<path d="M5.61306 85.6041L6.03298 84.1832L20.5129 88.4628L20.093 89.8836L5.61306 85.6041Z" fill="#202020"/>
<path d="M19.4326 70.0261C20.6269 70.5208 21.6081 71.1316 22.3762 71.8585C23.1442 72.5854 23.7118 73.3786 24.079 74.2382C24.4383 75.0788 24.6084 75.9589 24.5891 76.8785C24.5698 77.7981 24.3767 78.7007 24.0099 79.5865C23.6431 80.4722 23.1413 81.247 22.5047 81.9109C21.8681 82.5748 21.1228 83.0837 20.2688 83.4375C19.407 83.7723 18.4475 83.9251 17.3904 83.8961C16.3334 83.867 15.2076 83.6052 14.0133 83.1105C12.8189 82.6158 11.8444 82.0078 11.0898 81.2865C10.3218 80.5596 9.75808 79.7759 9.39875 78.9353C9.03156 78.0757 8.85761 77.1861 8.87689 76.2665C8.89617 75.3469 9.08923 74.4442 9.45608 73.5585C9.82292 72.6728 10.3246 71.898 10.9612 71.234C11.5978 70.5701 12.3471 70.0707 13.2089 69.7359C14.063 69.3822 15.0185 69.2198 16.0756 69.2489C17.1192 69.2724 18.2382 69.5314 19.4326 70.0261ZM18.8323 71.4755C17.8929 71.0864 17.0041 70.8598 16.166 70.7956C15.3144 70.7259 14.5353 70.8041 13.8285 71.0302C13.1217 71.2563 12.5034 71.6291 11.9738 72.1487C11.4363 72.6493 11.0064 73.2887 10.684 74.0671C10.3616 74.8454 10.2107 75.6083 10.2313 76.3558C10.244 77.0843 10.4203 77.7783 10.7603 78.438C11.1002 79.0976 11.596 79.7038 12.2474 80.2566C12.8855 80.8039 13.6742 81.2721 14.6136 81.6611C15.553 82.0502 16.4484 82.2796 17.3 82.3493C18.1381 82.4135 18.9106 82.3325 19.6174 82.1064C20.3242 81.8803 20.9463 81.517 21.4838 81.0164C22.0269 80.5024 22.4596 79.8562 22.782 79.0779C23.1044 78.2995 23.2525 77.5433 23.2264 76.8093C23.2058 76.0618 23.0255 75.3583 22.6856 74.6987C22.3456 74.039 21.8566 73.4356 21.2186 72.8883C20.5671 72.3355 19.7717 71.8646 18.8323 71.4755Z" fill="#202020"/>
<path d="M33.0289 61.7309C32.4511 61.7014 31.7574 61.6947 30.9477 61.7107C30.1455 61.7144 29.2834 61.7325 28.3614 61.7651C27.427 61.7901 26.4651 61.8324 25.4756 61.8918C24.4738 61.9437 23.4967 62.0108 22.5445 62.0929C21.5874 62.1552 20.6774 62.2377 19.8147 62.3405C18.9595 62.4309 18.2114 62.5271 17.5704 62.6292L28.4294 69.2615L27.6685 70.5074L14.7827 62.6371L15.396 61.6331C16.4887 61.4324 17.7195 61.2565 19.0883 61.1054C20.4523 60.9343 21.8297 60.7969 23.2206 60.6933C24.5991 60.5821 25.9287 60.5091 27.2095 60.4743C28.4978 60.4272 29.6001 60.4197 30.5166 60.4518L20.0295 54.0466L20.7904 52.8008L33.6762 60.671L33.0289 61.7309Z" fill="#202020"/>
<path d="M35.9536 57.4964L24.2471 47.96L29.7514 41.203L30.7481 42.0149L26.1795 47.6232L30.2506 50.9396L34.3238 45.9394L35.3036 46.7376L31.2303 51.7378L35.8927 55.5358L40.8191 49.4883L41.8157 50.3002L35.9536 57.4964Z" fill="#202020"/>
<path d="M47.3185 44.6002L37.3214 33.2846L43.7711 27.5864L44.6222 28.5498L39.2828 33.267L42.8027 37.2511L47.538 33.0676L48.3891 34.031L43.6539 38.2145L48.4288 43.6192L47.3185 44.6002Z" fill="#202020"/>
<path d="M47.019 25.1104L48.2043 24.2214L57.2637 36.3008L56.0784 37.1897L47.019 25.1104Z" fill="#202020"/>
<path d="M60.1085 16.3076L60.7946 17.3947L56.7042 19.9763L64.0768 31.658L62.8238 32.4487L55.4513 20.7671L51.3608 23.3486L50.6747 22.2615L60.1085 16.3076Z" fill="#202020"/>
<path d="M76.9911 8.4132C78.9986 7.68564 80.6325 7.52606 81.8929 7.93446C83.1533 8.34285 84.0384 9.25034 84.5482 10.6569C84.8402 11.4626 84.9467 12.2042 84.8678 12.8817C84.784 13.5456 84.5401 14.1515 84.1362 14.6996C83.7273 15.2341 83.1634 15.7243 82.4444 16.1702C81.7341 16.5976 80.8941 16.987 79.9246 17.3384L77.999 18.0363L79.9887 23.5261L78.5957 24.0309L73.5474 10.1016C73.9896 9.78687 74.5285 9.4834 75.1642 9.19121C75.8086 8.88041 76.4176 8.62107 76.9911 8.4132ZM77.4906 9.5995C76.9716 9.78757 76.5352 9.96891 76.1814 10.1435C75.8362 10.2995 75.5389 10.4382 75.2893 10.5595L77.561 16.8277L79.3227 16.1892C80.0738 15.917 80.7349 15.6311 81.3061 15.3314C81.8859 15.013 82.3455 14.6611 82.6847 14.2755C83.0326 13.8713 83.2459 13.4155 83.3246 12.908C83.4034 12.4005 83.3239 11.819 83.0864 11.1635C82.8587 10.5354 82.5409 10.0634 82.133 9.7478C81.7387 9.4272 81.2878 9.22754 80.7803 9.14881C80.2815 9.05148 79.7485 9.05153 79.1813 9.14897C78.6141 9.2464 78.0505 9.39658 77.4906 9.5995Z" fill="#202020"/>
<path d="M98.4767 16.7539L98.7703 18.0054L90.4128 19.9662L86.9641 5.26615L88.4065 4.92775L91.5616 18.3763L98.4767 16.7539Z" fill="#202020"/>
<path d="M110.979 16.4476C110.623 15.7422 110.283 15.0641 109.962 14.4132C109.64 13.7623 109.328 13.125 109.024 12.5014L101.727 13.3205C101.554 13.9976 101.384 14.6891 101.214 15.3951C101.045 16.1011 100.872 16.8367 100.695 17.6021L99.1574 17.7747C99.5598 16.1509 99.9382 14.6394 100.293 13.2403C100.646 11.8267 100.993 10.4941 101.335 9.2426C101.69 7.97499 102.043 6.75871 102.394 5.59376C102.746 4.42882 103.126 3.26063 103.536 2.0892L104.835 1.94337C105.494 2.99489 106.124 4.04965 106.725 5.10766C107.326 6.16566 107.933 7.27418 108.545 8.43323C109.17 9.57622 109.812 10.7978 110.469 12.0979C111.125 13.3837 111.837 14.7728 112.603 16.2653L110.979 16.4476ZM104.331 3.71001C103.922 5.01297 103.53 6.33596 103.155 7.67899C102.794 9.02039 102.422 10.4653 102.041 12.0136L108.428 11.2966C107.713 9.87141 107.023 8.54563 106.359 7.31927C105.695 6.09291 105.019 4.88983 104.331 3.71001Z" fill="#202020"/>
<path d="M121.389 14.2119C121.26 13.8424 121.072 13.3539 120.824 12.7462C120.59 12.1392 120.323 11.4797 120.021 10.7678C119.721 10.0413 119.413 9.30003 119.099 8.54389C118.786 7.77324 118.485 7.05405 118.196 6.38631C117.907 5.71858 117.651 5.13233 117.427 4.62757C117.203 4.1228 117.038 3.76616 116.931 3.55764C116.658 5.36263 116.415 7.3289 116.2 9.45647C116 11.5702 115.802 13.7931 115.607 16.1251L114.149 16.0575C114.407 13.3212 114.673 10.7017 114.949 8.19889C115.24 5.69676 115.561 3.30514 115.914 1.02402L117.22 1.08453C117.622 1.8302 118.047 2.69328 118.496 3.67379C118.946 4.63979 119.386 5.64899 119.817 6.70137C120.263 7.73992 120.688 8.77021 121.092 9.79223C121.51 10.8004 121.875 11.7116 122.186 12.5258C122.572 11.7439 123.012 10.87 123.508 9.90418C124.018 8.92452 124.537 7.93794 125.062 6.94445C125.604 5.93711 126.143 4.9733 126.68 4.05303C127.217 3.11824 127.721 2.29819 128.19 1.59287L129.43 1.65036C129.571 3.95434 129.662 6.36513 129.706 8.88273C129.764 11.401 129.794 14.0343 129.798 16.7827L128.296 16.7131C128.317 14.373 128.319 12.1411 128.301 10.0173C128.298 7.8796 128.244 5.89954 128.14 4.07707C128.014 4.27483 127.817 4.61466 127.547 5.09657C127.278 5.57847 126.968 6.1385 126.619 6.77664C126.269 7.41479 125.903 8.10305 125.52 8.84143C125.137 9.56529 124.763 10.275 124.396 10.9705C124.03 11.6515 123.695 12.2831 123.392 12.8652C123.103 13.448 122.878 13.9174 122.716 14.2734L121.389 14.2119Z" fill="#202020"/>
<path d="M135.821 2.62408L137.283 2.86259L134.853 17.7648L133.39 17.5263L135.821 2.62408Z" fill="#202020"/>
<path d="M147.724 20.7521C147.588 20.1897 147.398 19.5225 147.153 18.7506C146.922 17.9823 146.661 17.1607 146.368 16.2858C146.079 15.3969 145.766 14.4864 145.428 13.5544C145.094 12.6084 144.753 11.6904 144.404 10.8005C144.073 9.90031 143.736 9.05111 143.393 8.25291C143.064 7.45845 142.759 6.76833 142.48 6.18254L139.198 18.4763L137.788 18.0999L141.682 3.51149L142.819 3.81492C143.321 4.80591 143.838 5.93632 144.371 7.20614C144.922 8.46568 145.445 9.74766 145.938 11.0521C146.436 12.3425 146.883 13.5969 147.279 14.8152C147.69 16.0373 148.009 17.0923 148.238 17.9803L151.407 6.10751L152.818 6.48398L148.924 21.0724L147.724 20.7521Z" fill="#202020"/>
<path d="M152.463 22.2951L158.293 8.36686L166.332 11.7319L165.836 12.9177L159.163 10.1247L157.136 14.9685L163.085 17.4586L162.597 18.6243L156.648 16.1342L154.326 21.6814L161.521 24.6931L161.025 25.8789L152.463 22.2951Z" fill="#202020"/>
<path d="M179.228 34.3159C179.331 33.9386 179.452 33.4292 179.591 32.7876C179.741 32.1549 179.893 31.4597 180.047 30.702C180.21 29.9327 180.375 29.1475 180.544 28.3463C180.721 27.5335 180.879 26.7701 181.018 26.0559C181.157 25.3418 181.277 24.7133 181.378 24.1704C181.479 23.6275 181.544 23.2399 181.574 23.0076C180.329 24.3423 179.016 25.8264 177.636 27.4598C176.276 29.0904 174.857 30.8124 173.377 32.6256L172.213 31.7454C173.972 29.634 175.673 27.6241 177.316 25.7156C178.97 23.8159 180.587 22.025 182.168 20.3429L183.211 21.131C183.121 21.9732 182.983 22.9256 182.799 23.9882C182.624 25.0392 182.417 26.1206 182.178 27.2323C181.959 28.3413 181.726 29.4313 181.481 30.5024C181.257 31.5707 181.043 32.5286 180.839 33.3761C181.599 32.9489 182.456 32.4771 183.411 31.9605C184.386 31.4412 185.371 30.9204 186.367 30.3982C187.383 29.8732 188.372 29.3829 189.335 28.9274C190.307 28.4603 191.186 28.0684 191.972 27.7517L192.962 28.5005C191.776 30.4804 190.489 32.5209 189.101 34.622C187.725 36.7319 186.262 38.9214 184.711 41.1904L183.511 40.284C184.852 38.3657 186.115 36.5256 187.301 34.7636C188.507 32.9988 189.582 31.3352 190.526 29.7728C190.311 29.8649 189.956 30.0336 189.461 30.2787C188.966 30.5239 188.394 30.8108 187.745 31.1397C187.096 31.4685 186.405 31.8291 185.672 32.2215C184.947 32.6023 184.237 32.976 183.541 33.3424C182.854 33.6972 182.221 34.029 181.642 34.3377C181.074 34.6552 180.623 34.915 180.288 35.1172L179.228 34.3159Z" fill="#202020"/>
<path d="M187.031 43.4809L197.824 32.9212L203.919 39.1506L203 40.0496L197.941 34.8792L194.188 38.5515L198.698 43.1612L197.795 44.045L193.284 39.4352L188.986 43.6408L194.441 49.2162L193.522 50.1152L187.031 43.4809Z" fill="#202020"/>
<path d="M213.492 50.9905L212.475 51.7767L209.516 47.9499L198.587 56.3984L197.681 55.2262L208.61 46.7777L205.652 42.9509L206.669 42.1647L213.492 50.9905Z" fill="#202020"/>
<path d="M207.393 69.8578C207.886 69.2397 208.361 68.6491 208.819 68.0859C209.277 67.5226 209.727 66.9731 210.167 66.4373L206.386 60.1431C205.699 60.268 204.999 60.4004 204.287 60.5402C203.574 60.6801 202.833 60.8287 202.064 60.9861L201.267 59.66C202.911 59.3502 204.443 59.0654 205.863 58.8056C207.295 58.5383 208.651 58.2997 209.931 58.0898C211.232 57.8848 212.485 57.6998 213.69 57.5348C214.896 57.3698 216.116 57.2296 217.352 57.1144L218.025 58.235C217.343 59.2717 216.646 60.2834 215.934 61.2703C215.222 62.2571 214.467 63.2701 213.668 64.3093C212.888 65.3535 212.045 66.445 211.136 67.5839C210.24 68.7154 209.273 69.9402 208.234 71.2586L207.393 69.8578ZM216.209 58.5125C214.854 58.6826 213.488 58.8764 212.11 59.0938C210.74 59.3237 209.272 59.5873 207.705 59.8845L211.015 65.3943C212.013 64.1508 212.932 62.972 213.771 61.858C214.61 60.7441 215.423 59.6289 216.209 58.5125Z" fill="#202020"/>
<path d="M215.279 84.8429L214.081 85.308L210.975 77.3052L225.051 71.842L225.587 73.2232L212.709 78.2212L215.279 84.8429Z" fill="#202020"/>
<path d="M232 93.5259L230.757 93.8527L229.527 89.1747L216.167 92.6865L215.79 91.2536L229.15 87.7418L227.921 83.0637L229.164 82.7369L232 93.5259Z" fill="#202020"/>
</svg>
