<svg width="133" height="134" viewBox="0 0 133 134" fill="none" xmlns="http://www.w3.org/2000/svg">
<path d="M123.542 70.8317C123.576 70.2785 123.707 69.7685 123.935 69.3019C124.162 68.8435 124.477 68.4485 124.878 68.117C125.28 67.7937 125.763 67.5459 126.329 67.3737C126.903 67.2102 127.549 67.1507 128.267 67.1951C128.986 67.2395 129.615 67.3861 130.155 67.635C130.702 67.8926 131.155 68.2148 131.512 68.6016C131.87 68.9884 132.128 69.4271 132.289 69.9177C132.457 70.4089 132.526 70.9145 132.493 71.4347C132.474 71.7567 132.435 72.0485 132.377 72.3102C132.32 72.5719 132.252 72.7998 132.173 72.9938C132.103 73.1884 132.031 73.3539 131.956 73.4901C131.89 73.6269 131.829 73.731 131.775 73.8022L131.061 73.4846C131.198 73.2858 131.334 73.029 131.469 72.7141C131.613 72.408 131.699 72.0196 131.728 71.549C131.761 71.0123 131.699 70.5361 131.543 70.1203C131.386 69.7127 131.15 69.3625 130.837 69.0696C130.523 68.7767 130.144 68.546 129.699 68.3776C129.253 68.2174 128.753 68.1202 128.2 68.0861C127.63 68.0508 127.11 68.085 126.639 68.1885C126.177 68.3008 125.776 68.4791 125.438 68.7234C125.099 68.9677 124.832 69.2745 124.635 69.6435C124.438 70.0209 124.324 70.4573 124.293 70.9527C124.259 71.4976 124.281 71.9548 124.357 72.3242C124.442 72.7024 124.532 72.9898 124.627 73.1863L123.894 73.3773C123.857 73.3169 123.813 73.2148 123.764 73.0708C123.723 72.9274 123.681 72.7466 123.636 72.5283C123.592 72.3101 123.561 72.0595 123.546 71.7768C123.522 71.4935 123.521 71.1785 123.542 70.8317Z" fill="#202020"/>
<path d="M123.19 79.6867L122.469 79.555L123.349 74.7456L131.808 76.2921L131.656 77.1222L123.917 75.7073L123.19 79.6867Z" fill="#202020"/>
<path d="M130.349 83.2726L130.131 84.0878L121.823 81.8701L122.041 81.0548L130.349 83.2726Z" fill="#202020"/>
<path d="M129.397 86.5694L129.136 87.372L120.957 84.7175L121.218 83.9149L129.397 86.5694Z" fill="#202020"/>
<path d="M121.291 95.2163C120.618 94.9169 120.068 94.5546 119.642 94.1293C119.215 93.7041 118.904 93.244 118.708 92.7492C118.516 92.2652 118.432 91.7616 118.457 91.2384C118.481 90.7151 118.605 90.2041 118.827 89.7053C119.049 89.2065 119.346 88.7728 119.718 88.4043C120.091 88.0357 120.522 87.7571 121.014 87.5684C121.51 87.3906 122.058 87.3179 122.66 87.3501C123.261 87.3824 123.898 87.5482 124.571 87.8476C125.243 88.147 125.789 88.5077 126.208 88.9296C126.634 89.3549 126.944 89.8094 127.136 90.2934C127.332 90.7882 127.418 91.2973 127.393 91.8205C127.368 92.3438 127.245 92.8548 127.023 93.3537C126.801 93.8525 126.504 94.2861 126.131 94.6546C125.759 95.0232 125.325 95.2963 124.829 95.4741C124.338 95.6628 123.792 95.741 123.19 95.7088C122.596 95.6799 121.963 95.5157 121.291 95.2163ZM121.654 94.4001C122.183 94.6356 122.686 94.7778 123.162 94.8268C123.646 94.8792 124.09 94.8462 124.496 94.728C124.902 94.6098 125.259 94.4068 125.569 94.1189C125.882 93.8418 126.136 93.4842 126.331 93.0458C126.527 92.6075 126.624 92.1754 126.623 91.7495C126.627 91.3346 126.537 90.9368 126.353 90.5562C126.169 90.1756 125.896 89.8231 125.533 89.4987C125.178 89.1776 124.736 88.8994 124.207 88.6639C123.678 88.4284 123.172 88.2845 122.688 88.2321C122.212 88.1831 121.771 88.2177 121.365 88.3359C120.959 88.4541 120.6 88.6517 120.286 88.9287C119.969 89.2133 119.713 89.5747 119.518 90.0131C119.323 90.4514 119.228 90.8797 119.232 91.298C119.232 91.7239 119.324 92.1271 119.508 92.5077C119.692 92.8883 119.961 93.2392 120.316 93.5602C120.679 93.8846 121.125 94.1646 121.654 94.4001Z" fill="#202020"/>
<path d="M113.427 99.6948C113.755 99.72 114.15 99.734 114.612 99.7367C115.068 99.7463 115.559 99.7486 116.085 99.7436C116.617 99.743 117.165 99.733 117.73 99.7137C118.301 99.6988 118.858 99.6749 119.401 99.6421C119.947 99.6206 120.466 99.587 120.959 99.5411C121.447 99.5021 121.875 99.4583 122.241 99.4095L116.156 95.4746L116.607 94.7765L123.828 99.4458L123.465 100.009C122.839 100.107 122.136 100.189 121.355 100.255C120.576 100.332 119.789 100.39 118.996 100.429C118.209 100.472 117.451 100.494 116.722 100.495C115.988 100.503 115.36 100.491 114.838 100.46L120.715 104.26L120.264 104.958L113.043 100.289L113.427 99.6948Z" fill="#202020"/>
<path d="M111.73 101.986L118.257 107.585L115.025 111.352L114.469 110.875L117.152 107.748L114.882 105.801L112.49 108.589L111.944 108.12L114.336 105.333L111.736 103.103L108.844 106.474L108.288 105.998L111.73 101.986Z" fill="#202020"/>
<path d="M105.053 109.138L110.581 115.725L106.826 118.876L106.355 118.315L109.464 115.707L107.518 113.388L104.761 115.701L104.29 115.14L107.047 112.827L104.407 109.68L105.053 109.138Z" fill="#202020"/>
<path d="M104.987 120.18L104.3 120.669L99.3177 113.66L100.005 113.171L104.987 120.18Z" fill="#202020"/>
<path d="M97.4815 124.937L97.1068 124.308L99.4735 122.898L95.4471 116.139L96.172 115.707L100.198 122.466L102.565 121.056L102.94 121.685L97.4815 124.937Z" fill="#202020"/>
<path d="M88.7666 120.068C88.6912 119.893 88.6842 119.72 88.7456 119.55C88.7995 119.382 88.9252 119.256 89.1226 119.171C89.3201 119.085 89.502 119.079 89.6684 119.151C89.8272 119.227 89.9443 119.352 90.0197 119.527C90.0952 119.701 90.1059 119.872 90.0521 120.04C89.9906 120.21 89.8612 120.338 89.6637 120.424C89.4662 120.509 89.2881 120.514 89.1293 120.438C88.9629 120.366 88.842 120.242 88.7666 120.068Z" fill="#202020"/>
<path d="M84.6071 130.125C83.4358 130.452 82.5011 130.472 81.8028 130.186C81.1046 129.9 80.6409 129.347 80.4118 128.526C80.2806 128.056 80.2519 127.63 80.3258 127.249C80.4019 126.875 80.5665 126.542 80.8194 126.248C81.0745 125.962 81.4158 125.708 81.8433 125.485C82.265 125.273 82.7588 125.088 83.3245 124.93L84.448 124.616L83.5538 121.413L84.3665 121.186L86.6353 129.314C86.3707 129.473 86.0516 129.623 85.678 129.761C85.2987 129.91 84.9418 130.031 84.6071 130.125ZM84.3744 129.429C84.6772 129.345 84.9328 129.261 85.1413 129.177C85.344 129.103 85.5188 129.037 85.6657 128.979L84.6448 125.322L83.617 125.608C83.1787 125.731 82.791 125.865 82.4537 126.01C82.1108 126.166 81.8347 126.346 81.6255 126.551C81.4105 126.765 81.2698 127.015 81.2033 127.3C81.1368 127.585 81.1569 127.918 81.2637 128.301C81.366 128.667 81.5262 128.949 81.7444 129.146C81.9545 129.345 82.202 129.478 82.4868 129.544C82.7659 129.621 83.0686 129.644 83.3949 129.613C83.7212 129.582 84.0477 129.521 84.3744 129.429Z" fill="#202020"/>
<path d="M72.9583 124.408L72.8432 123.685L77.6715 122.916L79.0233 131.409L78.19 131.541L76.9533 123.772L72.9583 124.408Z" fill="#202020"/>
<path d="M65.6829 124.04C65.8562 124.456 66.0207 124.855 66.1762 125.238C66.3317 125.621 66.4828 125.996 66.6294 126.363L70.8081 126.202C70.9343 125.825 71.0601 125.439 71.1856 125.045C71.3112 124.651 71.4402 124.24 71.5727 123.813L72.4531 123.779C72.1569 124.685 71.879 125.527 71.6193 126.307C71.36 127.095 71.1072 127.838 70.8609 128.535C70.6067 129.24 70.3554 129.916 70.1072 130.563C69.859 131.21 69.5943 131.858 69.313 132.506L68.569 132.535C68.2386 131.91 67.9247 131.285 67.6273 130.659C67.3299 130.033 67.0315 129.378 66.7319 128.694C66.4243 128.019 66.1109 127.298 65.7915 126.532C65.4725 125.775 65.1263 124.956 64.7529 124.076L65.6829 124.04ZM68.9284 131.552C69.2151 130.829 69.493 130.094 69.7622 129.347C70.0231 128.6 70.2942 127.795 70.5755 126.931L66.9176 127.072C67.2646 127.912 67.6011 128.694 67.9271 129.418C68.2531 130.142 68.5869 130.853 68.9284 131.552Z" fill="#202020"/>
<path d="M59.8962 124.842C59.9537 125.057 60.0403 125.342 60.1559 125.698C60.2633 126.052 60.3878 126.438 60.5294 126.855C60.67 127.28 60.8137 127.714 60.9605 128.157C61.1064 128.607 61.2475 129.028 61.3838 129.42C61.5201 129.811 61.6414 130.155 61.7475 130.451C61.8536 130.747 61.9326 130.956 61.9845 131.079C62.2145 130.065 62.4349 128.958 62.6455 127.759C62.847 126.567 63.0517 125.312 63.2597 123.996L64.0852 124.095C63.8249 125.638 63.5643 127.115 63.3034 128.525C63.0342 129.934 62.752 131.279 62.4565 132.56L61.7173 132.472C61.5202 132.031 61.3146 131.523 61.1004 130.948C60.8852 130.38 60.6771 129.789 60.4761 129.173C60.2658 128.565 60.0674 127.962 59.8808 127.365C59.685 126.774 59.5157 126.242 59.3728 125.766C59.1214 126.194 58.8349 126.672 58.5133 127.2C58.1824 127.736 57.8469 128.274 57.5069 128.817C57.1576 129.366 56.8113 129.891 56.4679 130.392C56.1236 130.9 55.8036 131.345 55.5079 131.726L54.8056 131.642C54.8218 130.327 54.87 128.954 54.9502 127.522C55.0222 126.09 55.1144 124.593 55.2269 123.031L56.077 123.134C55.9675 124.462 55.8736 125.729 55.7954 126.937C55.7079 128.151 55.656 129.278 55.6395 130.317C55.719 130.21 55.8454 130.025 56.0185 129.763C56.1917 129.5 56.3908 129.195 56.6158 128.847C56.8409 128.499 57.0776 128.124 57.326 127.72C57.5735 127.325 57.8158 126.937 58.053 126.558C58.2892 126.186 58.5056 125.841 58.7021 125.523C58.8904 125.204 59.0379 124.947 59.1447 124.752L59.8962 124.842Z" fill="#202020"/>
<path d="M51.3798 130.826L50.559 130.63L52.555 122.265L53.3757 122.461L51.3798 130.826Z" fill="#202020"/>
<path d="M45.272 119.97C45.3248 120.295 45.4041 120.682 45.51 121.131C45.6081 121.577 45.7215 122.055 45.85 122.565C45.9759 123.082 46.1146 123.612 46.2662 124.156C46.4151 124.708 46.5695 125.244 46.7293 125.764C46.8785 126.29 47.0335 126.786 47.194 127.254C47.3468 127.72 47.49 128.125 47.6236 128.469L50.0158 121.629L50.8006 121.903L47.9619 130.021L47.3294 129.799C47.0868 129.215 46.8414 128.551 46.5933 127.807C46.3347 127.068 46.0932 126.317 45.869 125.555C45.6419 124.801 45.4421 124.07 45.2693 123.361C45.0888 122.649 44.9526 122.036 44.8607 121.522L42.5504 128.128L41.7656 127.854L44.6043 119.736L45.272 119.97Z" fill="#202020"/>
<path d="M42.6824 118.866L38.7817 126.53L34.3582 124.278L34.6903 123.626L38.3618 125.495L39.7183 122.829L36.4449 121.163L36.7714 120.522L40.0448 122.188L41.5983 119.136L37.6393 117.121L37.9714 116.468L42.6824 118.866Z" fill="#202020"/>
<path d="M28.1971 110.974C28.123 111.184 28.0332 111.469 27.9277 111.827C27.816 112.181 27.7008 112.569 27.582 112.993C27.4578 113.423 27.3312 113.863 27.2023 114.311C27.0679 114.765 26.9464 115.192 26.8377 115.592C26.7291 115.992 26.6349 116.344 26.5552 116.648C26.4755 116.952 26.4223 117.17 26.3957 117.3C27.1584 116.594 27.9655 115.805 28.8171 114.935C29.657 114.065 30.5347 113.146 31.4503 112.177L32.0753 112.725C30.9884 113.852 29.9389 114.923 28.9269 115.939C27.9086 116.949 26.9156 117.899 25.9481 118.789L25.3883 118.298C25.4745 117.824 25.5918 117.289 25.7404 116.693C25.8835 116.103 26.046 115.497 26.2281 114.876C26.3984 114.255 26.5754 113.645 26.759 113.047C26.9309 112.45 27.0922 111.914 27.2429 111.441C26.7936 111.653 26.2871 111.885 25.7234 112.139C25.148 112.394 24.5668 112.648 23.9797 112.904C23.381 113.16 22.7986 113.397 22.2326 113.616C21.6611 113.841 21.1457 114.027 20.6864 114.175L20.1547 113.708C20.9108 112.633 21.7264 111.527 22.6017 110.391C23.4707 109.25 24.3927 108.067 25.3676 106.842L26.0114 107.407C25.1705 108.441 24.3767 109.434 23.6301 110.386C22.8718 111.338 22.1922 112.238 21.5912 113.087C21.7173 113.043 21.9259 112.962 22.2171 112.843C22.5083 112.725 22.8451 112.585 23.2274 112.426C23.6096 112.266 24.0172 112.089 24.4501 111.897C24.8776 111.711 25.2965 111.528 25.7068 111.349C26.1117 111.176 26.485 111.013 26.8268 110.862C27.1624 110.705 27.4295 110.576 27.6281 110.475L28.1971 110.974Z" fill="#202020"/>
<path d="M24.2425 105.492L17.6754 111.044L14.471 107.253L15.0301 106.78L17.6897 109.927L19.9735 107.996L17.6023 105.191L18.1519 104.726L20.5232 107.531L23.1387 105.32L20.2707 101.928L20.8299 101.455L24.2425 105.492Z" fill="#202020"/>
<path d="M9.67365 100.303L10.284 99.8982L11.8052 102.195L18.3642 97.8507L18.8301 98.5542L12.2711 102.898L13.7923 105.195L13.1819 105.599L9.67365 100.303Z" fill="#202020"/>
<path d="M13.8868 89.7411C13.5809 90.0715 13.286 90.387 13.0022 90.6876C12.7184 90.9883 12.4401 91.2815 12.1673 91.5673L14.0504 95.3011C14.4461 95.259 14.8492 95.2132 15.2597 95.1637C15.6701 95.1142 16.0973 95.0609 16.541 95.0039L16.9378 95.7906C15.991 95.8974 15.109 95.9948 14.2917 96.0827C13.467 96.1744 12.6867 96.2529 11.9507 96.3184C11.2035 96.3801 10.4842 96.4326 9.79247 96.4757C9.1008 96.5187 8.40167 96.5471 7.69509 96.5606L7.35982 95.8958C7.79074 95.3357 8.22911 94.7903 8.67492 94.2598C9.12074 93.7292 9.59241 93.1855 10.0899 92.6289C10.5763 92.0686 11.1015 91.4841 11.6655 90.8754C12.222 90.2704 12.8228 89.6153 13.4678 88.9102L13.8868 89.7411ZM8.40283 95.8145C9.17961 95.7749 9.96375 95.7222 10.7552 95.6566C11.543 95.5835 12.3881 95.4955 13.2904 95.3925L11.642 92.1241C11.0228 92.7884 10.4515 93.4193 9.92825 94.0168C9.40497 94.6142 8.8965 95.2135 8.40283 95.8145Z" fill="#202020"/>
<path d="M10.1082 80.9781L10.8087 80.7653L12.2299 85.4433L4.00189 87.9429L3.75661 87.1355L11.2841 84.8487L10.1082 80.9781Z" fill="#202020"/>
<path d="M1.04333 75.6237L1.763 75.4893L2.26878 78.1972L10.0022 76.7527L10.1571 77.5822L2.4237 79.0266L2.92948 81.7346L2.20981 81.869L1.04333 75.6237Z" fill="#202020"/>
<path d="M9.36027 63.6752C9.33888 64.2291 9.21974 64.7419 9.00283 65.2137C8.78625 65.6772 8.48096 66.0793 8.08699 66.4201C7.69333 66.7526 7.21558 67.0115 6.65376 67.1968C6.08398 67.3735 5.43951 67.4479 4.72033 67.4202C4.00116 67.3924 3.3688 67.2603 2.82325 67.024C2.26975 66.7791 1.8099 66.4675 1.44369 66.0891C1.07748 65.7107 0.80857 65.2781 0.636956 64.7913C0.457076 64.3042 0.37719 63.8002 0.397298 63.2795C0.409747 62.9571 0.441744 62.6644 0.493289 62.4015C0.544835 62.1386 0.607504 61.9092 0.681295 61.7133C0.74682 61.5172 0.815361 61.3501 0.886919 61.2121C0.950209 61.0738 1.00809 60.9684 1.06056 60.896L1.7816 61.197C1.64963 61.3989 1.51955 61.6588 1.39137 61.9767C1.25525 62.286 1.17809 62.6763 1.1599 63.1475C1.13915 63.6848 1.21189 64.1595 1.37811 64.5716C1.54465 64.9754 1.78798 65.32 2.1081 65.6056C2.42822 65.8912 2.81289 66.113 3.26212 66.2711C3.71166 66.4209 4.21336 66.5065 4.7672 66.5279C5.33758 66.5499 5.85679 66.5037 6.32481 66.3893C6.78489 66.2663 7.18123 66.0788 7.51383 65.8267C7.84643 65.5747 8.10687 65.2619 8.29515 64.8883C8.48374 64.5065 8.58762 64.0676 8.60677 63.5716C8.62784 63.026 8.59579 62.5695 8.51064 62.2019C8.41754 61.8258 8.32093 61.5406 8.22081 61.3463L8.94908 61.1385C8.98818 61.1979 9.03395 61.299 9.08638 61.4418C9.13056 61.5842 9.17742 61.764 9.22699 61.9812C9.27656 62.1984 9.31245 62.4481 9.33466 62.7304C9.36514 63.0131 9.37368 63.328 9.36027 63.6752Z" fill="#202020"/>
<path d="M9.50373 54.8216L10.2267 54.9367L9.45819 59.765L0.965805 58.4132L1.09845 57.5799L8.86782 58.8166L9.50373 54.8216Z" fill="#202020"/>
<path d="M2.25577 51.4174L2.45474 50.5974L10.8115 52.6251L10.6126 53.4452L2.25577 51.4174Z" fill="#202020"/>
<path d="M3.06579 48.3141L3.30495 47.5049L11.5516 49.9422L11.3125 50.7514L3.06579 48.3141Z" fill="#202020"/>
<path d="M10.9203 39.4871C11.6005 39.7689 12.1594 40.1167 12.5968 40.5307C13.0342 40.9447 13.3575 41.3964 13.5666 41.886C13.7712 42.3647 13.8681 42.866 13.8571 43.3897C13.8461 43.9134 13.7361 44.4275 13.5272 44.932C13.3183 45.4364 13.0325 45.8777 12.67 46.2558C12.3074 46.6339 11.883 46.9237 11.3966 47.1252C10.9057 47.3159 10.3593 47.4029 9.75727 47.3864C9.15524 47.3699 8.51412 47.2207 7.83391 46.939C7.15369 46.6572 6.59869 46.311 6.16892 45.9002C5.73151 45.4862 5.41048 45.0398 5.20583 44.5611C4.99671 44.0716 4.89764 43.5649 4.90862 43.0412C4.9196 42.5174 5.02955 42.0033 5.23848 41.4989C5.44741 40.9945 5.73315 40.5532 6.0957 40.1751C6.45826 39.797 6.88497 39.5126 7.37583 39.3219C7.86221 39.1204 8.40641 39.0279 9.00843 39.0445C9.60281 39.0579 10.2401 39.2054 10.9203 39.4871ZM10.5784 40.3126C10.0434 40.091 9.53727 39.9619 9.05993 39.9254C8.57495 39.8857 8.13119 39.9302 7.72865 40.059C7.32612 40.1877 6.97403 40.4001 6.67239 40.696C6.36627 40.9811 6.12141 41.3453 5.93781 41.7886C5.7542 42.2318 5.66826 42.6663 5.67998 43.092C5.68723 43.5069 5.78765 43.9022 5.98126 44.2779C6.17487 44.6535 6.45719 44.9988 6.82821 45.3136C7.19159 45.6253 7.64078 45.892 8.17579 46.1135C8.71079 46.3351 9.22078 46.4658 9.70577 46.5055C10.1831 46.542 10.623 46.4959 11.0256 46.3671C11.4281 46.2384 11.7824 46.0315 12.0886 45.7464C12.3978 45.4536 12.6443 45.0856 12.8279 44.6423C13.0115 44.199 13.0959 43.7684 13.081 43.3503C13.0692 42.9246 12.9666 42.5239 12.773 42.1483C12.5794 41.7726 12.3009 41.4289 11.9375 41.1172C11.5665 40.8024 11.1135 40.5342 10.5784 40.3126Z" fill="#202020"/>
<path d="M18.6314 34.8256C18.3023 34.8088 17.9072 34.805 17.4461 34.8141C16.9892 34.8162 16.4982 34.8265 15.9731 34.8451C15.441 34.8593 14.8931 34.8834 14.3296 34.9172C13.759 34.9468 13.2026 34.985 12.6602 35.0318C12.1152 35.0672 11.5969 35.1142 11.1056 35.1728C10.6185 35.2242 10.1925 35.2791 9.82739 35.3372L16.0119 39.1144L15.5785 39.824L8.23975 35.3417L8.58901 34.7699C9.21133 34.6556 9.91229 34.5554 10.6919 34.4693C11.4687 34.3719 12.2532 34.2936 13.0453 34.2346C13.8304 34.1713 14.5877 34.1297 15.3171 34.1099C16.0508 34.0831 16.6786 34.0788 17.2006 34.0971L11.2279 30.4492L11.6613 29.7397L19 34.2219L18.6314 34.8256Z" fill="#202020"/>
<path d="M20.261 32.4649L13.5939 27.0337L16.7288 23.1854L17.2964 23.6478L14.6944 26.8419L17.013 28.7306L19.3328 25.8829L19.8908 26.3375L17.571 29.1852L20.2263 31.3483L23.032 27.9041L23.5996 28.3665L20.261 32.4649Z" fill="#202020"/>
<path d="M26.6823 25.1733L20.9887 18.7288L24.662 15.4836L25.1467 16.0322L22.1058 18.7188L24.1105 20.9879L26.8073 18.6053L27.292 19.1539L24.5952 21.5365L27.3147 24.6146L26.6823 25.1733Z" fill="#202020"/>
<path d="M26.4835 14.0968L27.1585 13.5905L32.318 20.47L31.643 20.9763L26.4835 14.0968Z" fill="#202020"/>
<path d="M33.9078 9.10416L34.2986 9.72329L31.969 11.1935L36.1678 17.8465L35.4543 18.2969L31.2554 11.6439L28.9258 13.1142L28.5351 12.495L33.9078 9.10416Z" fill="#202020"/>
<path d="M43.4344 4.65013C44.5777 4.23577 45.5083 4.14489 46.2261 4.37748C46.9439 4.61006 47.448 5.1269 47.7383 5.92798C47.9046 6.38685 47.9653 6.80922 47.9204 7.19506C47.8726 7.57314 47.7337 7.91824 47.5037 8.23039C47.2708 8.53476 46.9497 8.81394 46.5402 9.06794C46.1356 9.31135 45.6573 9.53312 45.1051 9.73325L44.0085 10.1307L45.1416 13.2572L44.3483 13.5448L41.4732 5.61171C41.725 5.43246 42.0319 5.25963 42.3939 5.09322C42.7609 4.91622 43.1078 4.76852 43.4344 4.65013ZM43.7189 5.32575C43.4233 5.43287 43.1748 5.53614 42.9732 5.63558C42.7767 5.72442 42.6073 5.8034 42.4652 5.87251L43.759 9.44238L44.7623 9.07876C45.19 8.92373 45.5666 8.76087 45.8919 8.59018C46.2221 8.40889 46.4839 8.20845 46.677 7.98885C46.8752 7.75866 46.9967 7.49905 47.0415 7.21003C47.0863 6.921 47.0411 6.58983 46.9058 6.21651C46.7761 5.85875 46.5951 5.58998 46.3628 5.41021C46.1382 5.22763 45.8815 5.11392 45.5924 5.06908C45.3084 5.01365 45.0048 5.01368 44.6818 5.06917C44.3587 5.12466 44.0377 5.21018 43.7189 5.32575Z" fill="#202020"/>
<path d="M55.6195 9.41782L55.7868 10.1306L51.0269 11.2473L49.0628 2.87526L49.8843 2.68254L51.6812 10.3418L55.6195 9.41782Z" fill="#202020"/>
<path d="M62.6869 9.25231C62.4836 8.85058 62.2904 8.46437 62.1073 8.09367C61.9242 7.72298 61.7461 7.36004 61.573 7.00487L57.4173 7.47136C57.3191 7.85699 57.2218 8.25084 57.1254 8.65291C57.029 9.05498 56.9304 9.47395 56.8295 9.90983L55.954 10.0081C56.1831 9.08334 56.3987 8.22253 56.6006 7.42569C56.8016 6.62062 56.9994 5.8617 57.1941 5.14891C57.3961 4.42698 57.5972 3.73428 57.7974 3.07082C57.9977 2.40735 58.2143 1.74205 58.4475 1.07489L59.1873 0.991837C59.5626 1.5907 59.9214 2.19141 60.2637 2.79397C60.606 3.39653 60.9516 4.02786 61.3004 4.68796C61.6565 5.33892 62.0218 6.03463 62.3963 6.7751C62.7699 7.50734 63.175 8.29847 63.6117 9.1485L62.6869 9.25231ZM58.9007 1.99798C58.6677 2.74004 58.4442 3.49352 58.2304 4.2584C58.0248 5.02236 57.8134 5.84525 57.596 6.72707L61.2338 6.31872C60.8263 5.50703 60.4335 4.75197 60.0555 4.05353C59.6774 3.35509 59.2925 2.66991 58.9007 1.99798Z" fill="#202020"/>
<path d="M68.5433 7.98114C68.4702 7.77072 68.3631 7.49247 68.2217 7.14638C68.0887 6.80068 67.9363 6.4251 67.7647 6.01963C67.5934 5.6059 67.4183 5.18372 67.2395 4.75308C67.0611 4.31418 66.8896 3.90459 66.725 3.5243C66.5605 3.14401 66.4144 2.81012 66.287 2.52265C66.1595 2.23517 66.0654 2.03206 66.0047 1.9133C65.8494 2.94128 65.7105 4.06112 65.5881 5.27282C65.4744 6.47663 65.3619 7.74262 65.2506 9.07077L64.4201 9.03228C64.5669 7.4739 64.7188 5.982 64.876 4.5566C65.0414 3.13158 65.2246 1.7695 65.4256 0.470347L66.1693 0.504813C66.3981 0.929484 66.6403 1.42103 66.896 1.97945C67.1521 2.52961 67.4029 3.10437 67.6484 3.70373C67.9025 4.29521 68.1445 4.88198 68.3742 5.46404C68.6126 6.03823 68.8205 6.55716 68.9977 7.02086C69.2171 6.57554 69.4679 6.07786 69.7501 5.5278C70.041 4.96986 70.3362 4.40798 70.6357 3.84216C70.9438 3.26846 71.2509 2.71955 71.5567 2.19544C71.8629 1.66305 72.1496 1.19602 72.4167 0.794321L73.1232 0.827063C73.2032 2.13923 73.2555 3.51223 73.2801 4.94606C73.3131 6.38027 73.3305 7.88001 73.3325 9.44529L72.4772 9.40566C72.4893 8.07291 72.4902 6.80176 72.48 5.5922C72.4785 4.37476 72.4479 3.24707 72.3884 2.20913C72.3169 2.32176 72.2044 2.5153 72.0509 2.78976C71.8974 3.06421 71.7211 3.38316 71.5221 3.7466C71.3231 4.11004 71.1144 4.50202 70.8962 4.92254C70.6783 5.33479 70.465 5.73898 70.2561 6.13509C70.0477 6.52294 69.8571 6.88263 69.6844 7.21416C69.52 7.54608 69.3916 7.81342 69.2994 8.01618L68.5433 7.98114Z" fill="#202020"/>
<path d="M76.7098 1.37604L77.5426 1.51187L76.1583 9.99902L75.3255 9.86318L76.7098 1.37604Z" fill="#202020"/>
<path d="M83.4451 11.6903C83.3679 11.3701 83.2596 10.9901 83.1201 10.5504C82.9885 10.1129 82.8394 9.645 82.6728 9.14672C82.5082 8.64044 82.3298 8.1219 82.1376 7.59111C81.9475 7.05232 81.7531 6.52952 81.5545 6.0227C81.366 5.51002 81.174 5.02639 80.9785 4.57179C80.7911 4.11933 80.6177 3.72629 80.4584 3.39267L78.5895 10.3943L77.7863 10.1799L80.004 1.87145L80.6514 2.04426C80.9374 2.60865 81.2322 3.25244 81.5358 3.97563C81.8495 4.69297 82.1469 5.42308 82.4281 6.16599C82.7114 6.9009 82.966 7.61529 83.1917 8.30915C83.4255 9.00515 83.6076 9.60602 83.738 10.1118L85.5429 3.34993L86.3462 3.56434L84.1285 11.8728L83.4451 11.6903Z" fill="#202020"/>
<path d="M86.0852 12.5497L89.4055 4.61723L93.9841 6.5337L93.7014 7.20904L89.9012 5.61838L88.7465 8.377L92.1347 9.79518L91.8568 10.4591L88.4686 9.04089L87.1463 12.2001L91.2441 13.9154L90.9615 14.5907L86.0852 12.5497Z" fill="#202020"/>
<path d="M101.23 19.3378C101.288 19.1229 101.357 18.8328 101.436 18.4674C101.522 18.1071 101.609 17.7111 101.696 17.2796C101.789 16.8415 101.883 16.3943 101.979 15.938C102.08 15.4751 102.17 15.0403 102.249 14.6336C102.329 14.2269 102.397 13.8689 102.454 13.5597C102.512 13.2505 102.549 13.0298 102.566 12.8975C101.857 13.6576 101.109 14.5029 100.323 15.4331C99.5486 16.3618 98.7401 17.3425 97.8975 18.3751L97.2342 17.8739C98.2363 16.6714 99.2051 15.5267 100.141 14.4398C101.083 13.3578 102.004 12.3379 102.904 11.3799L103.498 11.8288C103.447 12.3084 103.368 12.8508 103.264 13.4559C103.164 14.0545 103.046 14.6704 102.91 15.3036C102.785 15.9352 102.653 16.5559 102.513 17.166C102.385 17.7743 102.263 18.3199 102.147 18.8026C102.58 18.5593 103.068 18.2906 103.612 17.9964C104.167 17.7006 104.728 17.404 105.295 17.1066C105.874 16.8076 106.437 16.5284 106.986 16.269C107.54 16.0029 108.04 15.7797 108.487 15.5994L109.052 16.0258C108.376 17.1534 107.643 18.3155 106.853 19.5122C106.069 20.7138 105.235 21.9607 104.352 23.253L103.669 22.7368C104.433 21.6443 105.152 20.5963 105.827 19.5928C106.514 18.5877 107.127 17.6402 107.664 16.7504C107.542 16.8029 107.339 16.899 107.058 17.0386C106.776 17.1782 106.45 17.3416 106.081 17.5289C105.711 17.7161 105.317 17.9215 104.899 18.145C104.487 18.3619 104.082 18.5747 103.686 18.7834C103.295 18.9855 102.934 19.1744 102.604 19.3503C102.281 19.5311 102.024 19.679 101.833 19.7942L101.23 19.3378Z" fill="#202020"/>
<path d="M105.622 24.5134L111.769 18.4994L115.24 22.0472L114.717 22.5592L111.835 19.6145L109.698 21.706L112.267 24.3313L111.752 24.8347L109.183 22.2093L106.735 24.6045L109.842 27.7797L109.319 28.2918L105.622 24.5134Z" fill="#202020"/>
<path d="M120.658 28.7501L120.078 29.1978L118.394 27.0184L112.169 31.8299L111.653 31.1624L117.878 26.3508L116.193 24.1713L116.772 23.7235L120.658 28.7501Z" fill="#202020"/>
<path d="M117.154 39.4521C117.435 39.1001 117.705 38.7637 117.966 38.4429C118.227 38.1222 118.483 37.8092 118.734 37.504L116.581 33.9193C116.189 33.9905 115.791 34.0659 115.385 34.1455C114.979 34.2252 114.557 34.3098 114.119 34.3994L113.665 33.6442C114.601 33.4678 115.474 33.3056 116.282 33.1576C117.098 33.0054 117.87 32.8695 118.6 32.7499C119.34 32.6332 120.054 32.5279 120.74 32.4339C121.427 32.3399 122.122 32.2601 122.826 32.1944L123.209 32.8326C122.821 33.423 122.424 33.9993 122.018 34.5613C121.613 35.1233 121.183 35.7003 120.727 36.2921C120.284 36.8868 119.803 37.5084 119.286 38.1571C118.775 38.8014 118.224 39.499 117.633 40.2498L117.154 39.4521ZM122.175 32.9907C121.403 33.0875 120.625 33.1979 119.841 33.3217C119.06 33.4527 118.224 33.6028 117.332 33.7721L119.217 36.91C119.785 36.2018 120.309 35.5305 120.786 34.896C121.264 34.2616 121.727 33.6265 122.175 32.9907Z" fill="#202020"/>
<path d="M121.611 47.9166L120.928 48.1815L119.159 43.6237L127.176 40.5123L127.481 41.2989L120.147 44.1454L121.611 47.9166Z" fill="#202020"/>
<path d="M131.118 52.8121L130.41 52.9982L129.709 50.3339L122.101 52.334L121.886 51.5179L129.495 49.5179L128.794 46.8536L129.503 46.6675L131.118 52.8121Z" fill="#202020"/>
</svg>
