<svg width="216" height="216" viewBox="0 0 216 216" fill="none" xmlns="http://www.w3.org/2000/svg">
<circle cx="108" cy="108" r="107.75" fill="white" stroke="#202020" stroke-width="0.5"/>
<path d="M164.569 98.225C162.478 96.3458 159.759 95.3625 156.955 95.5125C154.135 95.6417 151.534 96.85 149.636 98.9167L133.928 116.013C132.606 111.396 128.309 108 123.228 108H77.5226C71.7225 108 67 112.671 67 118.417V147.583C67 153.329 71.7225 158 77.5226 158H124.765L165.335 112.929C169.17 108.667 168.825 102.075 164.565 98.2292L164.569 98.225ZM162.196 110.15L122.883 153.829H77.5226C74.0417 153.829 71.209 151.025 71.209 147.579V118.412C71.209 114.967 74.0417 112.162 77.5226 112.162H123.224C127.033 112.162 130.135 115.233 130.135 119.008C130.135 122.392 127.585 125.304 124.226 125.775L100.399 128.846L100.942 132.979L124.794 129.904C129.096 129.296 132.56 126.246 133.827 122.308L152.746 101.725C153.891 100.479 155.457 99.75 157.153 99.675C158.828 99.5875 160.478 100.179 161.733 101.308C164.296 103.625 164.502 107.592 162.191 110.154L162.196 110.15ZM96.4632 70.5H113.299V74.6667H96.4632V70.5ZM130.135 66.3333C130.135 61.7375 126.36 58 121.717 58H88.0451C83.4026 58 79.6271 61.7375 79.6271 66.3333V99.6667H130.135V66.3333ZM125.926 95.5H83.8361V66.3333C83.8361 64.0333 85.726 62.1667 88.0451 62.1667H121.717C124.037 62.1667 125.926 64.0333 125.926 66.3333V95.5Z" fill="black"/>
</svg>
