<svg width="216" height="216" viewBox="0 0 216 216" fill="none" xmlns="http://www.w3.org/2000/svg">
<circle cx="108" cy="108" r="107.75" fill="white" stroke="#202020" stroke-width="0.5"/>
<path fill-rule="evenodd" clip-rule="evenodd" d="M144.479 83.5279C144.847 83.4123 145.331 83.6436 145.815 84.2797C145.815 84.2797 145.815 84.2797 167.694 105.6C168.972 106.872 168.972 108.8 167.694 109.745C167.694 109.745 167.694 109.745 145.815 131.393C145.331 132.029 144.847 132.183 144.479 131.991C144.111 131.798 143.879 131.239 143.879 130.429V84.9159C143.879 84.1255 144.111 83.6436 144.479 83.5279Z" fill="#ED1C24"/>
<path fill-rule="evenodd" clip-rule="evenodd" d="M107.054 48H108.603L110.094 48.6169C110.094 48.6169 110.094 48.6169 132.612 70.9012C133.58 72.1735 133.251 73.1373 131.644 73.1373C131.644 73.1373 131.644 73.1373 122.311 73.1373C120.704 73.1373 119.426 74.4096 119.426 76.0096C119.426 76.0096 119.426 76.0096 119.426 92.5494C119.426 94.1494 118.129 95.4217 116.193 95.4217C116.193 95.4217 116.193 95.4217 99.793 95.4217C98.186 95.4217 96.8887 94.1494 96.8887 92.5494C96.8887 92.5494 96.8887 92.5494 96.8887 76.0096C96.8887 74.4096 95.6108 73.1373 93.9844 73.1373H84.0129C82.4059 73.1373 82.0767 72.1735 83.0448 70.9012C83.0448 70.9012 83.0448 70.9012 105.582 48.6169L107.054 48Z" fill="#ED1C24"/>
<path fill-rule="evenodd" clip-rule="evenodd" d="M71.7738 83.0457C72.1804 83.2384 72.4321 83.7975 72.4321 84.6071V131.065C72.4321 131.875 72.1804 132.356 71.7738 132.511C71.3865 132.665 70.825 132.511 70.1667 132.029C70.1667 132.029 70.1667 132.029 47.9584 109.744C46.6805 108.8 46.6805 106.872 47.9584 105.6C47.9584 105.6 47.9584 105.6 70.1667 83.6432C70.825 83.0071 71.3865 82.8529 71.7738 83.0457Z" fill="#ED1C24"/>
<path fill-rule="evenodd" clip-rule="evenodd" d="M99.7895 119.615C99.7895 119.615 99.7895 119.615 116.189 119.615C118.125 119.615 119.423 120.887 119.423 122.487C119.423 122.487 119.423 122.487 119.423 139.99C119.423 141.899 120.701 143.171 122.308 143.171H131.001C132.608 143.171 133.247 144.116 131.969 145.08C131.969 145.08 131.969 145.08 110.09 167.036C109.432 167.672 108.638 168 107.825 168C107.031 168 106.218 167.672 105.579 167.036C105.579 167.036 105.579 167.036 83.6997 145.08C82.4024 144.116 83.0413 143.171 84.6484 143.171C84.6484 143.171 84.6484 143.171 93.9809 143.171C95.6073 143.171 96.8852 141.899 96.8852 139.99C96.8852 139.99 96.8852 139.99 96.8852 122.487C96.8852 120.887 98.1825 119.615 99.7895 119.615Z" fill="#ED1C24"/>
</svg>
