<svg width="216" height="216" viewBox="0 0 216 216" fill="none" xmlns="http://www.w3.org/2000/svg">
<circle cx="108" cy="108" r="107.75" fill="white" stroke="#202020" stroke-width="0.5"/>
<path d="M158.608 101.384L154.408 88.7344C153.443 85.8188 151.587 83.2826 149.104 81.4862C146.62 79.6897 143.636 78.7244 140.575 78.7273H130.717C129.675 69.3307 121.717 62 112.083 62H78.75C73.7789 62.0055 69.0129 63.9899 65.4978 67.5178C61.9827 71.0457 60.0055 75.829 60 80.8182V141.455C60.0021 144.149 60.8683 146.771 62.4705 148.932C64.0727 151.094 66.3257 152.681 68.8962 153.458C71.4666 154.234 74.218 154.16 76.7431 153.245C79.2681 152.331 81.4328 150.625 82.9167 148.38C84.4006 150.625 86.5652 152.331 89.0903 153.245C91.6153 154.16 94.3667 154.234 96.9372 153.458C99.5076 152.681 101.761 151.094 103.363 148.932C104.965 146.771 105.831 144.149 105.833 141.455V137.273H126.667V141.455C126.667 148.371 132.275 154 139.167 154C146.058 154 151.667 148.371 151.667 141.455V135.859C154.158 134.67 156.263 132.797 157.738 130.457C159.212 128.117 159.997 125.405 160 122.636V109.982C160 107.055 159.533 104.161 158.608 101.384ZM150.454 90.06L154.654 102.71C154.775 103.078 154.887 103.45 154.992 103.822H130.829V82.9091H140.571C145.062 82.9091 149.033 85.7862 150.454 90.06ZM64.1667 80.8182C64.1667 72.7473 70.7083 66.1818 78.75 66.1818H112.083C120.125 66.1818 126.667 72.7473 126.667 80.8182V133.091H64.1667V80.8182ZM72.5 149.818C67.9042 149.818 64.1667 146.067 64.1667 141.455V137.273H80.8333V141.455C80.8333 146.067 77.0958 149.818 72.5 149.818ZM101.667 141.455C101.667 146.067 97.9292 149.818 93.3333 149.818C88.7375 149.818 85 146.067 85 141.455V137.273H101.667V141.455ZM147.5 141.455C147.5 146.067 143.762 149.818 139.167 149.818C134.571 149.818 130.833 146.067 130.833 141.455V137.273H145.417C146.125 137.273 146.821 137.223 147.5 137.122V141.455ZM155.833 122.636C155.833 128.399 151.158 133.091 145.417 133.091H130.833V108H155.746C155.804 108.657 155.833 109.317 155.833 109.982V122.636Z" fill="black"/>
</svg>
