<svg width="216" height="216" viewBox="0 0 216 216" fill="none" xmlns="http://www.w3.org/2000/svg">
<circle cx="108" cy="108" r="107.75" fill="white" stroke="#202020" stroke-width="0.5"/>
<path d="M145.582 116.889C145.579 116.888 105.987 107.898 105.987 107.898C94.186 105.218 86.7832 93.4458 89.4529 81.6034C92.1243 69.7609 103.856 62.3341 115.657 65.0131C127.459 67.6931 134.861 79.4653 132.191 91.307C130.853 97.2359 127.244 102.054 122.492 105.055C122.491 105.055 122.48 105.065 122.475 105.067C122.335 105.168 122.245 105.332 122.245 105.516C122.245 105.774 122.423 105.991 122.663 106.049C122.664 106.05 140.276 110.047 140.279 110.047C140.698 110.142 141.133 109.98 141.39 109.638C141.392 109.635 141.391 109.638 141.391 109.638C146.243 103.195 149.158 95.1563 149.158 86.4616C149.158 65.9855 133.215 49.2519 113.106 48.0634C112.927 48.0534 111.837 48.0107 111.469 48.0055C102.566 47.8652 93.5388 50.4269 85.6889 55.9435C65.8648 69.8721 61.0483 97.2883 74.9275 117.18L110.152 167.661C110.303 167.867 110.545 168 110.817 168C111.091 168 111.334 167.864 111.484 167.657C111.484 167.657 146.074 118.158 146.077 118.153C146.165 118.022 146.218 117.863 146.218 117.692C146.218 117.301 145.946 116.973 145.582 116.889Z" fill="#FABC26"/>
</svg>
