<svg width="80" height="80" viewBox="0 0 80 80" fill="none" xmlns="http://www.w3.org/2000/svg">
<circle cx="40" cy="40" r="39.5" fill="#F8F1F4" stroke="#353535"/>
<path d="M27.5804 46.58C27.7663 46.7675 27.9875 46.9163 28.2312 47.0178C28.4749 47.1194 28.7363 47.1716 29.0004 47.1716C29.2644 47.1716 29.5258 47.1194 29.7695 47.0178C30.0132 46.9163 30.2344 46.7675 30.4204 46.58L39.5804 37.4201C39.7663 37.2326 39.9875 37.0838 40.2312 36.9823C40.4749 36.8807 40.7363 36.8285 41.0004 36.8285C41.2644 36.8285 41.5258 36.8807 41.7695 36.9823C42.0132 37.0838 42.2344 37.2326 42.4204 37.4201L51.5804 46.58C51.7663 46.7675 51.9875 46.9163 52.2312 47.0178C52.4749 47.1194 52.7363 47.1716 53.0004 47.1716C53.2644 47.1716 53.5258 47.1194 53.7695 47.0178C54.0132 46.9163 54.2344 46.7675 54.4204 46.58C54.7929 46.2053 55.002 45.6984 55.002 45.17C55.002 44.6417 54.7929 44.1348 54.4204 43.76L45.2404 34.5801C44.1154 33.4565 42.5904 32.8253 41.0004 32.8253C39.4104 32.8253 37.8854 33.4565 36.7604 34.5801L27.5804 43.76C27.2079 44.1348 26.9988 44.6417 26.9988 45.17C26.9988 45.6984 27.2079 46.2053 27.5804 46.58Z" fill="#5A5A5A"/>
</svg>
