<svg width="162" height="162" viewBox="0 0 162 162" fill="none" xmlns="http://www.w3.org/2000/svg">
<path d="M150.447 86.262C150.489 85.5965 150.646 84.983 150.92 84.4217C151.194 83.8702 151.572 83.3951 152.055 82.9962C152.538 82.6072 153.12 82.3092 153.801 82.102C154.491 81.9053 155.268 81.8337 156.132 81.8871C156.996 81.9406 157.753 82.117 158.403 82.4164C159.061 82.7263 159.606 83.1139 160.036 83.5792C160.466 84.0445 160.777 84.5723 160.97 85.1625C161.173 85.7533 161.255 86.3617 161.216 86.9874C161.192 87.3748 161.145 87.7259 161.076 88.0407C161.007 88.3555 160.925 88.6296 160.831 88.8631C160.747 89.0972 160.66 89.2962 160.57 89.4601C160.49 89.6247 160.417 89.7499 160.352 89.8356L159.493 89.4534C159.658 89.2143 159.821 88.9054 159.984 88.5266C160.157 88.1583 160.26 87.6911 160.295 87.1249C160.335 86.4793 160.261 85.9064 160.072 85.4062C159.883 84.9159 159.6 84.4945 159.223 84.1422C158.846 83.7898 158.39 83.5124 157.854 83.3097C157.317 83.117 156.716 83.0001 156.051 82.959C155.365 82.9166 154.74 82.9577 154.174 83.0823C153.617 83.2174 153.135 83.4319 152.728 83.7258C152.321 84.0197 151.999 84.3886 151.762 84.8327C151.525 85.2866 151.388 85.8116 151.351 86.4076C151.31 87.0631 151.336 87.6131 151.428 88.0576C151.53 88.5125 151.638 88.8582 151.753 89.0947L150.871 89.3243C150.826 89.2517 150.774 89.1289 150.715 88.9557C150.666 88.7832 150.614 88.5656 150.561 88.3031C150.507 88.0405 150.471 87.7391 150.452 87.399C150.423 87.0582 150.422 86.6792 150.447 86.262Z" fill="#202020"/>
<path d="M150.012 97.0126L149.145 96.8542L150.203 91.0685L160.379 92.9289L160.197 93.9275L150.887 92.2254L150.012 97.0126Z" fill="#202020"/>
<path d="M158.61 101.391L158.348 102.371L148.353 99.7034L148.615 98.7226L158.61 101.391Z" fill="#202020"/>
<path d="M157.452 105.398L157.139 106.364L147.299 103.171L147.612 102.205L157.452 105.398Z" fill="#202020"/>
<path d="M147.669 115.883C146.86 115.523 146.199 115.087 145.685 114.576C145.172 114.064 144.798 113.511 144.562 112.915C144.331 112.333 144.23 111.727 144.26 111.098C144.289 110.468 144.438 109.854 144.705 109.253C144.972 108.653 145.329 108.132 145.777 107.688C146.225 107.245 146.745 106.91 147.336 106.683C147.932 106.469 148.592 106.381 149.316 106.42C150.039 106.459 150.806 106.659 151.615 107.019C152.424 107.379 153.08 107.813 153.584 108.32C154.097 108.832 154.469 109.379 154.7 109.961C154.937 110.556 155.04 111.169 155.01 111.798C154.98 112.428 154.832 113.042 154.565 113.642C154.298 114.243 153.94 114.764 153.492 115.208C153.045 115.651 152.523 115.98 151.926 116.193C151.335 116.42 150.678 116.515 149.954 116.476C149.24 116.441 148.478 116.243 147.669 115.883ZM148.106 114.901C148.742 115.185 149.347 115.356 149.92 115.415C150.502 115.478 151.037 115.438 151.525 115.296C152.013 115.154 152.443 114.909 152.815 114.563C153.192 114.23 153.498 113.8 153.733 113.272C153.968 112.745 154.085 112.225 154.084 111.713C154.088 111.214 153.98 110.735 153.759 110.277C153.538 109.819 153.209 109.395 152.773 109.005C152.346 108.619 151.814 108.284 151.178 108.001C150.541 107.717 149.932 107.544 149.35 107.481C148.777 107.422 148.247 107.464 147.758 107.606C147.27 107.748 146.838 107.986 146.461 108.319C146.079 108.662 145.771 109.096 145.537 109.624C145.302 110.151 145.187 110.666 145.192 111.17C145.193 111.682 145.303 112.167 145.524 112.625C145.745 113.083 146.07 113.505 146.497 113.891C146.933 114.281 147.469 114.618 148.106 114.901Z" fill="#202020"/>
<path d="M138.148 121.383C138.543 121.413 139.018 121.43 139.573 121.433C140.122 121.445 140.713 121.448 141.345 121.442C141.986 121.441 142.645 121.429 143.324 121.406C144.011 121.388 144.681 121.359 145.335 121.319C145.992 121.294 146.616 121.253 147.209 121.198C147.796 121.151 148.31 121.098 148.751 121.04L141.431 116.306L141.974 115.466L150.661 121.083L150.223 121.76C149.471 121.878 148.625 121.977 147.685 122.057C146.748 122.15 145.802 122.22 144.847 122.266C143.901 122.318 142.989 122.345 142.111 122.346C141.228 122.356 140.473 122.341 139.846 122.303L146.916 126.875L146.373 127.715L137.686 122.097L138.148 121.383Z" fill="#202020"/>
<path d="M136.04 124.228L143.891 130.963L140.003 135.495L139.335 134.922L142.562 131.16L139.832 128.818L136.954 132.172L136.297 131.608L139.174 128.254L136.047 125.571L132.568 129.628L131.899 129.054L136.04 124.228Z" fill="#202020"/>
<path d="M127.911 132.927L134.561 140.851L130.044 144.642L129.478 143.967L133.218 140.829L130.876 138.039L127.56 140.822L126.994 140.147L130.31 137.364L127.134 133.579L127.911 132.927Z" fill="#202020"/>
<path d="M127.78 146.251L126.952 146.839L120.959 138.407L121.786 137.819L127.78 146.251Z" fill="#202020"/>
<path d="M118.694 152.01L118.243 151.254L121.091 149.558L116.247 141.427L117.119 140.907L121.963 149.038L124.81 147.342L125.26 148.099L118.694 152.01Z" fill="#202020"/>
<path d="M108.115 146.201C108.024 145.991 108.016 145.783 108.09 145.578C108.154 145.377 108.305 145.225 108.543 145.122C108.781 145.02 108.999 145.012 109.2 145.099C109.391 145.19 109.532 145.34 109.622 145.55C109.713 145.761 109.726 145.966 109.661 146.168C109.587 146.373 109.432 146.527 109.194 146.63C108.956 146.732 108.742 146.738 108.551 146.647C108.351 146.56 108.205 146.411 108.115 146.201Z" fill="#202020"/>
<path d="M103.005 158.337C101.596 158.731 100.472 158.755 99.6318 158.411C98.7918 158.067 98.234 157.401 97.9584 156.414C97.8005 155.848 97.766 155.336 97.8549 154.877C97.9465 154.428 98.1444 154.027 98.4487 153.673C98.7556 153.329 99.1662 153.023 99.6805 152.756C100.188 152.501 100.782 152.278 101.462 152.088L102.814 151.711L101.738 147.857L102.716 147.584L105.445 157.362C105.127 157.554 104.743 157.733 104.294 157.9C103.837 158.079 103.408 158.225 103.005 158.337ZM102.725 157.501C103.09 157.399 103.397 157.298 103.648 157.197C103.892 157.108 104.102 157.029 104.279 156.959L103.051 152.559L101.814 152.904C101.287 153.051 100.821 153.213 100.415 153.388C100.002 153.575 99.6701 153.792 99.4184 154.038C99.1599 154.296 98.9906 154.597 98.9106 154.939C98.8306 155.282 98.8548 155.683 98.9832 156.143C99.1063 156.584 99.2991 156.923 99.5615 157.16C99.8143 157.399 100.112 157.559 100.455 157.639C100.79 157.731 101.155 157.759 101.547 157.721C101.94 157.684 102.332 157.611 102.725 157.501Z" fill="#202020"/>
<path d="M88.8995 151.482L88.761 150.612L94.5695 149.687L96.1957 159.904L95.1932 160.063L93.7054 150.717L88.8995 151.482Z" fill="#202020"/>
<path d="M80.049 151.047C80.2575 151.547 80.4553 152.028 80.6424 152.489C80.8295 152.949 81.0113 153.4 81.1876 153.842L86.2146 153.648C86.3664 153.194 86.5178 152.73 86.6688 152.256C86.8198 151.782 86.975 151.288 87.1344 150.774L88.1935 150.733C87.8372 151.822 87.5029 152.836 87.1905 153.774C86.8786 154.723 86.5744 155.616 86.2781 156.454C85.9723 157.302 85.67 158.116 85.3714 158.894C85.0728 159.672 84.7543 160.452 84.416 161.232L83.521 161.266C83.1234 160.515 82.7458 159.762 82.3881 159.009C82.0303 158.256 81.6713 157.468 81.3108 156.646C80.9409 155.833 80.5638 154.966 80.1796 154.045C79.7959 153.134 79.3794 152.149 78.9302 151.091L80.049 151.047ZM83.9534 160.084C84.2982 159.214 84.6326 158.33 84.9564 157.431C85.2703 156.533 85.5964 155.564 85.9348 154.525L81.5343 154.695C81.9517 155.705 82.3566 156.645 82.7487 157.516C83.1409 158.388 83.5425 159.244 83.9534 160.084Z" fill="#202020"/>
<path d="M72.957 152.006C73.0262 152.265 73.1303 152.609 73.2694 153.036C73.3987 153.463 73.5484 153.927 73.7188 154.428C73.8879 154.94 74.0608 155.462 74.2374 155.994C74.4129 156.536 74.5826 157.043 74.7466 157.514C74.9106 157.984 75.0565 158.398 75.1841 158.754C75.3118 159.11 75.4068 159.362 75.4692 159.51C75.746 158.29 76.011 156.959 76.2645 155.516C76.5068 154.081 76.7531 152.572 77.0034 150.989L77.9964 151.108C77.6833 152.965 77.3698 154.741 77.0559 156.438C76.7321 158.133 76.3925 159.751 76.0371 161.292L75.1478 161.185C74.9107 160.656 74.6633 160.045 74.4057 159.352C74.1468 158.669 73.8965 157.958 73.6546 157.217C73.4017 156.485 73.163 155.76 72.9385 155.041C72.703 154.331 72.4993 153.691 72.3274 153.119C72.025 153.634 71.6803 154.209 71.2933 154.844C70.8953 155.488 70.4917 156.136 70.0826 156.788C69.6625 157.45 69.2458 158.081 68.8328 158.683C68.4185 159.295 68.0336 159.83 67.6778 160.289L66.833 160.187C66.8524 158.606 66.9104 156.954 67.0069 155.231C67.0936 153.508 67.2045 151.707 67.3398 149.829L68.3624 149.951C68.2308 151.549 68.1179 153.074 68.0237 154.526C67.9185 155.987 67.856 157.343 67.8362 158.594C67.9318 158.465 68.0838 158.242 68.2921 157.927C68.5004 157.611 68.74 157.244 69.0107 156.825C69.2815 156.407 69.5663 155.955 69.8651 155.469C70.1627 154.994 70.4543 154.528 70.7396 154.071C71.0238 153.624 71.2841 153.209 71.5205 152.826C71.747 152.443 71.9245 152.133 72.0529 151.898L72.957 152.006Z" fill="#202020"/>
<path d="M62.618 159.188L61.6306 158.953L64.0317 148.89L65.0191 149.126L62.618 159.188Z" fill="#202020"/>
<path d="M55.1895 146.106C55.2531 146.497 55.3485 146.963 55.4759 147.503C55.5939 148.04 55.7303 148.614 55.885 149.227C56.0364 149.85 56.2032 150.488 56.3856 151.142C56.5648 151.806 56.7504 152.45 56.9427 153.076C57.1223 153.708 57.3086 154.306 57.5018 154.869C57.6856 155.429 57.8578 155.916 58.0186 156.331L60.8964 148.102L61.8405 148.432L58.4255 158.197L57.6646 157.931C57.3728 157.228 57.0776 156.429 56.7792 155.534C56.468 154.645 56.1775 153.742 55.9077 152.825C55.6346 151.918 55.3942 151.038 55.1864 150.185C54.9692 149.329 54.8053 148.591 54.6948 147.973L51.9155 155.92L50.9714 155.59L54.3864 145.825L55.1895 146.106Z" fill="#202020"/>
<path d="M51.9721 144.735L47.2795 153.954L41.958 151.246L42.3575 150.461L46.7743 152.709L48.4062 149.503L44.4683 147.498L44.8611 146.727L48.799 148.731L50.6679 145.059L45.9052 142.635L46.3047 141.85L51.9721 144.735Z" fill="#202020"/>
<path d="M34.3758 135.124C34.2866 135.377 34.1785 135.719 34.0516 136.151C33.9173 136.576 33.7786 137.043 33.6357 137.553C33.4863 138.071 33.334 138.599 33.1789 139.138C33.0173 139.685 32.8711 140.198 32.7404 140.679C32.6097 141.16 32.4964 141.584 32.4005 141.95C32.3046 142.316 32.2406 142.577 32.2086 142.735C33.1261 141.885 34.0971 140.936 35.1216 139.889C36.132 138.842 37.1879 137.736 38.2893 136.571L39.0413 137.231C37.7337 138.586 36.4712 139.874 35.2536 141.097C34.0286 142.312 32.8341 143.455 31.6701 144.526L30.9967 143.935C31.1004 143.364 31.2416 142.72 31.4203 142.004C31.5924 141.294 31.788 140.566 32.007 139.818C32.2119 139.071 32.4248 138.338 32.6456 137.618C32.8524 136.899 33.0465 136.255 33.2278 135.686C32.6874 135.94 32.078 136.22 31.3999 136.525C30.7077 136.832 30.0084 137.138 29.3022 137.446C28.5819 137.754 27.8813 138.039 27.2004 138.303C26.5129 138.573 25.8929 138.797 25.3403 138.975L24.7006 138.413C25.6102 137.12 26.5915 135.79 27.6444 134.423C28.6898 133.05 29.799 131.627 30.9719 130.154L31.7463 130.833C30.7347 132.077 29.7798 133.271 28.8816 134.416C27.9693 135.562 27.1517 136.645 26.4288 137.666C26.5805 137.613 26.8315 137.516 27.1818 137.373C27.5321 137.23 27.9372 137.063 28.3971 136.87C28.857 136.678 29.3473 136.466 29.8681 136.234C30.3824 136.01 30.8863 135.79 31.3799 135.575C31.867 135.366 32.3161 135.171 32.7273 134.989C33.131 134.801 33.4523 134.645 33.6912 134.524L34.3758 135.124Z" fill="#202020"/>
<path d="M29.5325 128.442L21.6321 135.121L17.7772 130.561L18.4498 129.992L21.6494 133.777L24.3968 131.454L21.5442 128.08L22.2054 127.521L25.058 130.895L28.2045 128.236L24.7544 124.154L25.427 123.586L29.5325 128.442Z" fill="#202020"/>
<path d="M11.948 122.122L12.6823 121.635L14.5122 124.398L22.4028 119.172L22.9633 120.018L15.0728 125.244L16.9028 128.007L16.1685 128.494L11.948 122.122Z" fill="#202020"/>
<path d="M16.9674 109.331C16.5993 109.728 16.2446 110.108 15.9032 110.469C15.5617 110.831 15.2269 111.184 14.8987 111.528L17.1641 116.019C17.6401 115.969 18.1251 115.914 18.6189 115.854C19.1127 115.795 19.6265 115.731 20.1604 115.662L20.6376 116.608C19.4987 116.737 18.4376 116.854 17.4544 116.96C16.4623 117.07 15.5235 117.165 14.6381 117.243C13.7393 117.318 12.8739 117.381 12.0418 117.432C11.2097 117.484 10.3687 117.518 9.51865 117.535L9.11532 116.735C9.63372 116.061 10.1611 115.405 10.6974 114.767C11.2337 114.128 11.8011 113.474 12.3997 112.805C12.9848 112.131 13.6166 111.428 14.295 110.695C14.9646 109.967 15.6873 109.179 16.4632 108.331L16.9674 109.331ZM10.3701 116.637C11.3045 116.589 12.2479 116.526 13.2 116.447C14.1477 116.359 15.1643 116.253 16.2499 116.129L14.2668 112.197C13.5219 112.997 12.8347 113.756 12.2052 114.474C11.5757 115.193 10.964 115.914 10.3701 116.637Z" fill="#202020"/>
<path d="M12.369 98.6579L13.2117 98.4019L14.9213 104.03L5.023 107.037L4.72793 106.065L13.7836 103.314L12.369 98.6579Z" fill="#202020"/>
<path d="M1.4421 92.1279L2.30788 91.9662L2.91633 95.2238L12.2197 93.4861L12.4061 94.484L3.10271 96.2216L3.71117 99.4793L2.84539 99.641L1.4421 92.1279Z" fill="#202020"/>
<path d="M11.434 77.5704C11.4083 78.2367 11.265 78.8536 11.004 79.4212C10.7435 79.9788 10.3762 80.4626 9.90225 80.8725C9.42868 81.2725 8.85395 81.584 8.17807 81.8069C7.49262 82.0194 6.71732 82.109 5.85214 82.0756C4.98697 82.0422 4.22624 81.8833 3.56994 81.5991C2.90408 81.3044 2.35087 80.9295 1.91032 80.4743C1.46977 80.0191 1.14626 79.4987 0.939811 78.913C0.723413 78.327 0.62731 77.7208 0.651501 77.0943C0.666476 76.7065 0.704969 76.3544 0.766979 76.0381C0.828989 75.7218 0.904379 75.4458 0.993151 75.2102C1.07198 74.9743 1.15443 74.7733 1.24052 74.6073C1.31666 74.4409 1.38629 74.3141 1.44941 74.2269L2.31683 74.5891C2.15806 74.8319 2.00158 75.1446 1.84738 75.5271C1.68362 75.8992 1.5908 76.3687 1.56891 76.9355C1.54395 77.5819 1.63146 78.153 1.83142 78.6487C2.03177 79.1345 2.3245 79.5491 2.70961 79.8927C3.09472 80.2362 3.55748 80.503 4.0979 80.6932C4.63871 80.8734 5.24225 80.9764 5.90853 81.0022C6.5947 81.0287 7.21931 80.9731 7.78234 80.8355C8.33582 80.6875 8.81262 80.462 9.21274 80.1587C9.61287 79.8555 9.92618 79.4791 10.1527 79.0298C10.3796 78.5704 10.5045 78.0424 10.5276 77.4458C10.5529 76.7894 10.5144 76.2402 10.4119 75.798C10.2999 75.3455 10.1837 75.0024 10.0632 74.7687L10.9394 74.5187C10.9864 74.5902 11.0415 74.7118 11.1045 74.8836C11.1577 75.0549 11.2141 75.2712 11.2737 75.5325C11.3333 75.7937 11.3765 76.0942 11.4032 76.4338C11.4399 76.7739 11.4502 77.1527 11.434 77.5704Z" fill="#202020"/>
<path d="M11.6165 66.8205L12.4863 66.9589L11.5617 72.7674L1.34532 71.1412L1.50489 70.1387L10.8515 71.6265L11.6165 66.8205Z" fill="#202020"/>
<path d="M2.90998 62.6596L3.14934 61.6732L13.2026 64.1126L12.9633 65.0991L2.90998 62.6596Z" fill="#202020"/>
<path d="M3.89488 58.8874L4.18259 57.9139L14.1034 60.846L13.8157 61.8194L3.89488 58.8874Z" fill="#202020"/>
<path d="M13.3731 48.1872C14.1914 48.5261 14.8637 48.9446 15.3899 49.4426C15.9161 49.9406 16.305 50.4841 16.5566 51.073C16.8028 51.649 16.9193 52.2519 16.906 52.882C16.8928 53.5121 16.7606 54.1305 16.5092 54.7374C16.2579 55.3442 15.9141 55.8751 15.478 56.3299C15.0418 56.7848 14.5312 57.1335 13.9461 57.3758C13.3555 57.6052 12.6982 57.71 11.9739 57.6901C11.2497 57.6702 10.4784 57.4907 9.66011 57.1518C8.84181 56.8129 8.17414 56.3963 7.65713 55.9021C7.13091 55.4041 6.74471 54.8671 6.49852 54.2912C6.24694 53.7023 6.12776 53.0928 6.14097 52.4627C6.15418 51.8327 6.28646 51.2142 6.5378 50.6074C6.78914 50.0005 7.13289 49.4697 7.56905 49.0148C8.0052 48.5599 8.51853 48.2178 9.10904 47.9884C9.69416 47.746 10.3488 47.6348 11.0731 47.6547C11.7881 47.6708 12.5548 47.8483 13.3731 48.1872ZM12.9618 49.1802C12.3182 48.9136 11.7093 48.7584 11.135 48.7144C10.5516 48.6667 10.0177 48.7202 9.53349 48.8751C9.04924 49.03 8.62567 49.2855 8.2628 49.6414C7.89454 49.9844 7.59997 50.4225 7.37909 50.9558C7.15822 51.4891 7.05483 52.0118 7.06893 52.5239C7.07764 53.023 7.19846 53.4985 7.43137 53.9505C7.66428 54.4024 8.00391 54.8178 8.45026 55.1965C8.8874 55.5715 9.42779 55.8922 10.0714 56.1588C10.715 56.4254 11.3285 56.5826 11.912 56.6303C12.4862 56.6743 13.0155 56.6188 13.4997 56.4639C13.984 56.309 14.4102 56.0601 14.7785 55.7171C15.1506 55.3649 15.447 54.9222 15.6679 54.3889C15.8888 53.8556 15.9903 53.3375 15.9724 52.8346C15.9583 52.3225 15.8348 51.8405 15.6019 51.3885C15.3689 50.9366 15.0339 50.5232 14.5968 50.1482C14.1504 49.7694 13.6054 49.4468 12.9618 49.1802Z" fill="#202020"/>
<path d="M22.7078 42.4645C22.312 42.4443 21.8367 42.4397 21.2819 42.4507C20.7323 42.4532 20.1416 42.4656 19.5099 42.488C18.8698 42.5051 18.2107 42.5341 17.5328 42.5748C16.8464 42.6104 16.1769 42.6563 15.5245 42.7126C14.8688 42.7552 14.2453 42.8118 13.6542 42.8822C13.0683 42.9441 12.5558 43.0101 12.1166 43.08L19.5565 47.6241L19.0352 48.4776L10.2066 43.0855L10.6268 42.3975C11.3754 42.26 12.2187 42.1395 13.1565 42.036C14.0911 41.9187 15.0348 41.8246 15.9878 41.7536C16.9322 41.6774 17.8432 41.6274 18.7207 41.6036C19.6034 41.5713 20.3586 41.5662 20.9866 41.5882L13.8014 37.1997L14.3227 36.3462L23.1513 41.7384L22.7078 42.4645Z" fill="#202020"/>
<path d="M24.733 39.5332L16.7124 32.9995L20.4837 28.37L21.1665 28.9263L18.0363 32.7687L20.8256 35.0409L23.6164 31.6151L24.2876 32.1619L21.4969 35.5878L24.6912 38.1899L28.0665 34.0465L28.7494 34.6028L24.733 39.5332Z" fill="#202020"/>
<path d="M32.5514 30.664L25.702 22.9112L30.1209 19.0071L30.7041 19.6672L27.0459 22.8992L29.4575 25.6288L32.7018 22.7626L33.2849 23.4226L30.0406 26.2889L33.3122 29.9919L32.5514 30.664Z" fill="#202020"/>
<path d="M32.3634 17.2978L33.1755 16.6887L39.3825 24.9648L38.5704 25.5738L32.3634 17.2978Z" fill="#202020"/>
<path d="M41.3498 11.2533L41.8199 11.9981L39.0174 13.7668L44.0686 21.7704L43.2102 22.3122L38.1589 14.3086L35.3564 16.0773L34.8863 15.3325L41.3498 11.2533Z" fill="#202020"/>
<path d="M52.97 5.8182C54.3454 5.31972 55.4649 5.21039 56.3284 5.4902C57.192 5.77 57.7984 6.39176 58.1477 7.35547C58.3477 7.90749 58.4207 8.4156 58.3667 8.87977C58.3092 9.3346 58.1421 9.74977 57.8654 10.1253C57.5853 10.4914 57.1989 10.8273 56.7063 11.1329C56.2196 11.4257 55.6441 11.6925 54.9798 11.9332L53.6606 12.4114L55.0238 16.1726L54.0694 16.5185L50.6106 6.97499C50.9135 6.75935 51.2828 6.55144 51.7183 6.35124C52.1598 6.1383 52.577 5.96062 52.97 5.8182ZM53.3122 6.63098C52.9567 6.75984 52.6577 6.88408 52.4152 7.00371C52.1787 7.11058 51.975 7.2056 51.804 7.28874L53.3605 11.5833L54.5675 11.1459C55.0821 10.9594 55.535 10.7635 55.9264 10.5581C56.3237 10.34 56.6385 10.0989 56.8709 9.83471C57.1093 9.55778 57.2554 9.24547 57.3094 8.89777C57.3633 8.55008 57.3089 8.15168 57.1461 7.70257C56.9901 7.27218 56.7724 6.94885 56.4929 6.73259C56.2227 6.51293 55.9138 6.37614 55.5661 6.3222C55.2244 6.25551 54.8592 6.25555 54.4706 6.3223C54.0819 6.38906 53.6958 6.49195 53.3122 6.63098Z" fill="#202020"/>
<path d="M67.722 11.5242L67.9231 12.3817L62.197 13.7251L59.8342 3.6535L60.8224 3.42165L62.9841 12.6358L67.722 11.5242Z" fill="#202020"/>
<path d="M76.3207 11.3085C76.0761 10.8252 75.8437 10.3606 75.6234 9.9146C75.4031 9.46866 75.1889 9.03204 74.9807 8.60476L69.9814 9.16595C69.8632 9.62987 69.7461 10.1037 69.6302 10.5874C69.5142 11.0711 69.3956 11.5751 69.2742 12.0995L68.2209 12.2177C68.4966 11.1052 68.7559 10.0696 68.9988 9.11101C69.2406 8.14252 69.4786 7.22952 69.7128 6.37203C69.9558 5.50354 70.1977 4.67022 70.4386 3.87207C70.6795 3.07392 70.9402 2.27355 71.2206 1.47096L72.1107 1.37104C72.5621 2.09148 72.9937 2.81414 73.4056 3.53902C73.8174 4.2639 74.2332 5.02339 74.6528 5.8175C75.0812 6.60061 75.5206 7.43756 75.9711 8.32835C76.4205 9.20924 76.9079 10.161 77.4333 11.1836L76.3207 11.3085ZM71.7659 2.58144C71.4855 3.47415 71.2167 4.38058 70.9595 5.30074C70.7122 6.21979 70.4578 7.20973 70.1963 8.27057L74.5726 7.77932C74.0824 6.80286 73.6099 5.89451 73.1551 5.05428C72.7002 4.21406 72.2372 3.38978 71.7659 2.58144Z" fill="#202020"/>
<path d="M83.4963 9.7752C83.4084 9.52206 83.2794 9.18732 83.1094 8.77097C82.9494 8.35509 82.7661 7.90326 82.5595 7.41548C82.3535 6.91776 82.1429 6.40987 81.9278 5.89181C81.7131 5.36381 81.5068 4.87107 81.3089 4.41357C81.1109 3.95608 80.9352 3.55442 80.7819 3.20858C80.6286 2.86275 80.5153 2.6184 80.4423 2.47554C80.2554 3.71221 80.0884 5.05938 79.9412 6.51706C79.8043 7.96526 79.669 9.48825 79.5351 11.086L78.5361 11.0397C78.7126 9.16497 78.8954 7.37021 79.0844 5.65544C79.2834 3.94113 79.5038 2.30254 79.7456 0.73965L80.6403 0.781112C80.9155 1.292 81.2069 1.88333 81.5145 2.55512C81.8226 3.21696 82.1243 3.9084 82.4197 4.62943C82.7254 5.34098 83.0165 6.04687 83.2929 6.7471C83.5797 7.43785 83.8297 8.06214 84.0429 8.61996C84.3069 8.08425 84.6086 7.48553 84.9481 6.82381C85.298 6.1526 85.6531 5.47666 86.0134 4.79597C86.3841 4.10581 86.7535 3.44546 87.1214 2.81495C87.4898 2.17449 87.8347 1.61264 88.1559 1.12939L89.0059 1.16878C89.1021 2.74733 89.165 4.39906 89.1947 6.12396C89.2343 7.84933 89.2553 9.65353 89.2577 11.5366L88.2288 11.4889C88.2433 9.88559 88.2444 8.35638 88.2322 6.90127C88.2303 5.43668 88.1935 4.08007 88.1219 2.83142C88.0359 2.96691 87.9006 3.19974 87.7159 3.52992C87.5313 3.86009 87.3192 4.24378 87.0798 4.681C86.8403 5.11823 86.5893 5.58978 86.3268 6.09567C86.0647 6.59162 85.808 7.07785 85.5568 7.55438C85.3061 8.02096 85.0768 8.45368 84.869 8.85251C84.6712 9.25181 84.5168 9.57342 84.4059 9.81735L83.4963 9.7752Z" fill="#202020"/>
<path d="M93.4157 1.84011L94.4176 2.00352L92.7522 12.2136L91.7504 12.0502L93.4157 1.84011Z" fill="#202020"/>
<path d="M101.598 14.265C101.505 13.8797 101.375 13.4226 101.207 12.8937C101.049 12.3674 100.87 11.8045 100.669 11.205C100.471 10.596 100.257 9.97217 100.025 9.33362C99.7966 8.68546 99.5628 8.05652 99.3238 7.44681C99.097 6.83006 98.8661 6.24824 98.6309 5.70136C98.4054 5.15705 98.1969 4.68422 98.0053 4.28287L95.757 12.7058L94.7906 12.4479L97.4586 2.45283L98.2374 2.66072C98.5815 3.33969 98.9361 4.11417 99.3013 4.98418C99.6787 5.84713 100.037 6.72547 100.375 7.61919C100.716 8.5033 101.022 9.36271 101.293 10.1974C101.575 11.0347 101.794 11.7576 101.951 12.366L104.122 4.23146L105.088 4.48939L102.42 14.4845L101.598 14.265Z" fill="#202020"/>
<path d="M104.88 15.3347L108.875 5.7919L114.383 8.09742L114.043 8.90987L109.471 6.99629L108.082 10.3149L112.158 12.021L111.824 12.8197L107.748 11.1136L106.157 14.9142L111.087 16.9776L110.747 17.7901L104.88 15.3347Z" fill="#202020"/>
<path d="M123.279 23.6043C123.349 23.3458 123.432 22.9968 123.527 22.5573C123.63 22.1238 123.734 21.6474 123.84 21.1283C123.951 20.6013 124.065 20.0633 124.18 19.5144C124.302 18.9575 124.41 18.4344 124.505 17.9451C124.601 17.4558 124.683 17.0252 124.752 16.6533C124.821 16.2813 124.866 16.0157 124.886 15.8566C124.033 16.7711 123.133 17.7879 122.188 18.907C121.256 20.0242 120.284 21.2039 119.27 22.4462L118.472 21.8432C119.678 20.3966 120.843 19.0195 121.968 17.712C123.102 16.4104 124.21 15.1834 125.293 14.0309L126.007 14.5709C125.946 15.1479 125.852 15.8004 125.726 16.5284C125.606 17.2485 125.464 17.9894 125.3 18.7511C125.149 19.5109 124.99 20.2577 124.823 20.9916C124.669 21.7235 124.522 22.3798 124.383 22.9605C124.903 22.6678 125.49 22.3445 126.145 21.9906C126.813 21.6348 127.488 21.278 128.17 20.9202C128.866 20.5605 129.544 20.2246 130.204 19.9125C130.87 19.5925 131.472 19.324 132.01 19.107L132.689 19.62C131.876 20.9765 130.994 22.3745 130.043 23.8141C129.1 25.2597 128.098 26.7597 127.035 28.3144L126.213 27.6933C127.132 26.379 127.997 25.1183 128.81 23.9111C129.636 22.702 130.373 21.5621 131.02 20.4917C130.872 20.5548 130.629 20.6704 130.29 20.8383C129.951 21.0063 129.559 21.2029 129.114 21.4282C128.67 21.6535 128.196 21.9006 127.693 22.1694C127.197 22.4303 126.71 22.6863 126.234 22.9374C125.763 23.1805 125.329 23.4078 124.932 23.6193C124.544 23.8368 124.234 24.0148 124.005 24.1533L123.279 23.6043Z" fill="#202020"/>
<path d="M128.655 29.911L136.05 22.6762L140.226 26.9442L139.596 27.5601L136.13 24.0177L133.559 26.5337L136.649 29.692L136.03 30.2975L132.94 27.1392L129.995 30.0206L133.732 33.8405L133.103 34.4565L128.655 29.911Z" fill="#202020"/>
<path d="M146.806 35.0806L146.11 35.6193L144.083 32.9974L136.595 38.7857L135.974 37.9826L143.462 32.1943L141.435 29.5723L142.132 29.0337L146.806 35.0806Z" fill="#202020"/>
<path d="M142.646 48.0347C142.984 47.6113 143.309 47.2066 143.623 46.8207C143.937 46.4348 144.245 46.0583 144.547 45.6912L141.956 41.3788C141.485 41.4644 141.006 41.5551 140.518 41.6509C140.03 41.7467 139.522 41.8486 138.995 41.9564L138.449 41.0478C139.575 40.8356 140.625 40.6405 141.597 40.4624C142.579 40.2793 143.508 40.1158 144.385 39.972C145.276 39.8316 146.134 39.7048 146.96 39.5918C147.786 39.4787 148.623 39.3827 149.469 39.3037L149.93 40.0715C149.463 40.7818 148.986 41.4749 148.498 42.1511C148.01 42.8272 147.492 43.5213 146.945 44.2332C146.411 44.9487 145.833 45.6965 145.21 46.4768C144.596 47.252 143.934 48.0912 143.222 48.9944L142.646 48.0347ZM148.686 40.2616C147.758 40.3781 146.822 40.5109 145.878 40.6599C144.939 40.8174 143.933 40.998 142.86 41.2017L145.128 44.9766C145.812 44.1246 146.441 43.317 147.016 42.5538C147.59 41.7906 148.147 41.0265 148.686 40.2616Z" fill="#202020"/>
<path d="M148.07 58.3447L147.249 58.6633L145.121 53.1802L154.765 49.4372L155.132 50.3835L146.309 53.8079L148.07 58.3447Z" fill="#202020"/>
<path d="M159.535 64.3227L158.683 64.5466L157.841 61.3415L148.688 63.7475L148.43 62.7658L157.583 60.3597L156.74 57.1546L157.592 56.9307L159.535 64.3227Z" fill="#202020"/>
</svg>
