<svg width="24" height="24" viewBox="0 0 24 24" fill="none" xmlns="http://www.w3.org/2000/svg">
<circle cx="12" cy="12" r="11.75" stroke="#202020" stroke-width="0.5"/>
<path d="M10.5731 15.417C10.5116 14.6177 10.5116 13.8184 10.4501 12.9576C10.4501 12.5272 10.2656 12.2198 9.77376 12.2198C9.46633 12.2198 9.15891 12.2812 9.09742 11.8508C9.03594 11.2975 8.91297 10.6826 9.09742 10.1293C9.09742 10.0678 9.34336 9.94481 9.46633 9.94481C10.3886 10.1293 10.5731 9.63738 10.5731 8.89956C10.5731 6.93203 12.2332 5.88677 14.3851 6.00974C15 6.07123 15 6.56311 15 6.99351C14.9385 7.42391 15.1845 8.03877 14.3851 8.03877C13.7088 7.97728 13.2169 8.22323 13.2169 9.02253C13.2169 9.5759 13.2784 10.0063 13.9548 10.0678C14.9385 10.1293 14.7541 10.8056 14.7541 11.4819C14.8155 12.2198 14.4466 12.4657 13.7703 12.4657C13.094 12.4657 12.971 12.8346 12.971 13.4495C12.971 14.8021 12.971 16.0933 12.9095 17.446C12.848 18.3068 12.6636 18.3683 11.4953 18.3068C10.696 18.3068 10.5731 17.9379 10.6346 17.2615C10.5116 16.7082 10.5116 16.0933 10.5731 15.417Z" fill="#202020"/>
</svg>
