<svg width="24" height="24" viewBox="0 0 24 24" fill="none" xmlns="http://www.w3.org/2000/svg">
<circle cx="12" cy="12" r="11.75" stroke="#202020" stroke-width="0.5"/>
<path d="M11.6651 17.7589C10.6115 17.7589 9.55796 17.822 8.56636 17.7589C7.14093 17.6328 6.58315 17.1281 6.33525 15.6142C6.02538 13.848 5.90143 12.1449 6.08736 10.3786C6.14933 9.74784 6.2113 9.05396 6.33525 8.42316C6.52118 7.09849 7.07896 6.53078 8.38044 6.21538C8.93821 6.08922 9.43402 6.02613 9.99179 6.08921C11.1693 6.15229 12.3468 6.15229 13.5244 6.02613C14.0821 5.96305 14.5779 6.02613 15.1357 6.08921C16.1893 6.21537 16.933 6.7831 17.057 7.85545C17.4288 10.5048 17.7387 13.1541 17.2429 15.8035C16.995 17.0651 16.4372 17.5697 15.1977 17.822C14.0821 17.8851 12.9046 17.822 11.6651 17.7589ZM11.913 9.30627C10.4876 9.24319 9.24809 10.3156 9.12413 11.6402C9.00018 13.2803 9.99179 14.3526 11.6651 14.4788C12.9666 14.5419 14.2061 13.4065 14.3301 11.9556C14.454 10.631 13.3384 9.36935 11.913 9.30627ZM15.7555 8.297C15.6935 7.91852 15.5076 7.6662 15.0738 7.6662C14.578 7.6662 14.3301 7.98161 14.3301 8.42316C14.3301 8.86472 14.578 9.18011 15.0738 9.18011C15.5696 9.11703 15.7555 8.80163 15.7555 8.297Z" fill="#202020"/>
</svg>
