<svg width="48" height="48" viewBox="0 0 48 48" fill="none" xmlns="http://www.w3.org/2000/svg">
<path d="M23.7248 12.75C19.3651 12.75 15.1604 17.2377 15.8183 20.8188C15.8183 25.1013 22.992 35.1067 23.2974 35.5304L23.5825 35.9263C23.5989 35.9491 23.6203 35.9677 23.645 35.9805C23.6697 35.9933 23.697 36 23.7248 36C23.7526 36 23.7801 35.9934 23.805 35.9806C23.8298 35.9678 23.8514 35.9492 23.8679 35.9263L24.1528 35.5304C24.4584 35.1067 31.6319 25.1013 31.6319 20.8188C32.2485 16.6564 28.0846 12.75 23.7248 12.75ZM23.7248 17.9286C25.2869 17.9286 26.5571 19.2248 26.5571 20.8188C26.5571 22.4119 25.2868 23.709 23.7248 23.709C22.1636 23.709 20.8925 22.4119 20.8925 20.8188C20.8925 19.2248 22.1635 17.9286 23.7248 17.9286Z" fill="#202020"/>
<circle cx="24" cy="24" r="23.75" stroke="#202020" stroke-width="0.5"/>
</svg>
