<svg width="216" height="216" viewBox="0 0 216 216" fill="none" xmlns="http://www.w3.org/2000/svg">
<circle cx="108" cy="108" r="107.75" fill="white" stroke="#202020" stroke-width="0.5"/>
<g clip-path="url(#clip0_265_1921)">
<path d="M153.297 95.4219V94.9219V81.3306C153.273 78.5537 152.153 75.8987 150.181 73.9434C148.208 71.9878 145.543 70.8905 142.766 70.8906H73.0312H73.0312C70.2536 70.8905 67.5884 71.9878 65.616 73.9434C63.644 75.8986 62.5242 78.5535 62.5 81.3303V134.669C62.5281 137.445 63.6493 140.098 65.6205 142.052C67.5922 144.007 70.2553 145.106 73.0319 145.109L153.297 95.4219ZM153.297 95.4219H153.797M153.297 95.4219H153.797M153.797 95.4219L155.077 95.4219L153.797 95.4219ZM155.078 100.062H155.083C155.551 100.067 156 100.253 156.334 100.58L156.34 100.586C156.671 100.92 156.857 101.371 156.859 101.841L156.859 101.844L156.859 118.25V118.252C156.857 118.722 156.671 119.173 156.341 119.507M155.078 100.062L155.984 119.156M155.078 100.062H130.469C127.821 100.062 125.281 101.114 123.409 102.987C121.536 104.859 120.484 107.399 120.484 110.047C120.484 112.695 121.536 115.234 123.409 117.107C125.281 118.979 127.821 120.031 130.469 120.031H155.076M155.078 100.062V119.531M156.341 119.507C156.34 119.507 156.34 119.508 156.34 119.508L155.984 119.156M156.341 119.507C156.341 119.507 156.341 119.507 156.341 119.506L155.984 119.156M156.341 119.507C156.176 119.675 155.978 119.808 155.761 119.898C155.544 119.988 155.311 120.033 155.076 120.031M155.984 119.156C155.866 119.277 155.725 119.372 155.57 119.436C155.414 119.501 155.247 119.533 155.078 119.531M155.076 120.031H155.078V119.531M155.076 120.031C155.075 120.031 155.074 120.031 155.073 120.031L155.078 119.531M148.156 95.4219H148.656V94.9219V81.3281V81.3267C148.652 79.7673 148.029 78.2734 146.925 77.1724C145.821 76.0714 144.325 75.4531 142.766 75.4531H73.0313C71.4719 75.4531 69.9762 76.0714 68.872 77.1724C67.7678 78.2734 67.1451 79.7673 67.1406 81.3267V81.3281L67.1406 134.672L67.1406 134.673C67.1451 136.233 67.7678 137.727 68.872 138.828C69.9762 139.929 71.4719 140.547 73.0312 140.547H142.766C144.325 140.547 145.821 139.929 146.925 138.828C148.029 137.727 148.652 136.233 148.656 134.673V134.672V125.172V124.672H148.156H130.469C126.59 124.672 122.87 123.131 120.127 120.388C117.385 117.646 115.844 113.926 115.844 110.047C115.844 106.168 117.385 102.448 120.127 99.7054C122.87 96.9627 126.59 95.4219 130.469 95.4219H148.156Z" fill="#202020" stroke="white"/>
<path d="M128.719 105.136C129.69 104.487 130.832 104.141 132 104.141C133.565 104.145 135.065 104.768 136.172 105.875C137.279 106.982 137.902 108.482 137.906 110.047C137.906 111.215 137.56 112.357 136.911 113.328C136.262 114.299 135.339 115.057 134.26 115.504C133.181 115.951 131.993 116.068 130.848 115.84C129.702 115.612 128.65 115.049 127.824 114.223C126.998 113.397 126.435 112.345 126.207 111.199C125.979 110.053 126.096 108.866 126.543 107.787C126.99 106.707 127.747 105.785 128.719 105.136ZM132.885 112.183C133.165 112.065 133.419 111.893 133.631 111.675C133.95 111.354 134.167 110.945 134.254 110.5C134.341 110.055 134.295 109.594 134.12 109.175C133.946 108.757 133.651 108.399 133.274 108.147C132.897 107.896 132.453 107.762 132 107.762C131.547 107.762 131.103 107.896 130.726 108.147C130.349 108.399 130.054 108.757 129.88 109.175C129.705 109.594 129.659 110.055 129.746 110.5C129.833 110.945 130.05 111.354 130.369 111.675C130.581 111.893 130.835 112.065 131.115 112.183C131.395 112.301 131.696 112.362 132 112.362C132.304 112.362 132.605 112.301 132.885 112.183Z" fill="#202020" stroke="white" stroke-width="0.5"/>
</g>
<defs>
<clipPath id="clip0_265_1921">
<rect width="100" height="100" fill="white" transform="translate(62 58)"/>
</clipPath>
</defs>
</svg>
