<svg width="216" height="216" viewBox="0 0 216 216" fill="none" xmlns="http://www.w3.org/2000/svg">
<circle cx="108" cy="108" r="107.75" fill="white" stroke="#202020" stroke-width="0.5"/>
<path fill-rule="evenodd" clip-rule="evenodd" d="M65.554 76.3816C63.3437 76.3816 61.3816 78.3149 61.3816 80.9162V85.7154H154.618V80.9162C154.618 78.3149 152.656 76.3816 150.446 76.3816H65.554ZM61.3816 97.5358V89.097H154.618V97.5358H61.3816ZM61.3816 100.917V134.898C61.3816 137.499 63.3437 139.433 65.554 139.433H150.446C152.656 139.433 154.618 137.499 154.618 134.898V100.917H61.3816ZM58 80.9162C58 76.6411 61.288 73 65.554 73H150.446C154.712 73 158 76.6411 158 80.9162V134.898C158 139.173 154.712 142.814 150.446 142.814H65.554C61.288 142.814 58 139.173 58 134.898V80.9162ZM72.1738 114.607C72.1738 113.673 72.9308 112.916 73.8646 112.916H101.173C102.106 112.916 102.863 113.673 102.863 114.607C102.863 115.541 102.106 116.298 101.173 116.298H73.8646C72.9308 116.298 72.1738 115.541 72.1738 114.607ZM73.8646 123.021C72.9308 123.021 72.1738 123.778 72.1738 124.712C72.1738 125.646 72.9308 126.403 73.8646 126.403H89.8566C90.7904 126.403 91.5474 125.646 91.5474 124.712C91.5474 123.778 90.7904 123.021 89.8566 123.021H73.8646Z" fill="#202020"/>
</svg>
