<svg width="216" height="216" viewBox="0 0 216 216" fill="none" xmlns="http://www.w3.org/2000/svg">
<circle cx="108" cy="108" r="107.75" fill="white" stroke="#202020" stroke-width="0.5"/>
<g clip-path="url(#clip0_265_1925)">
<path d="M152.175 63.8248C151.076 62.7251 149.298 62.7251 148.198 63.8248L63.8578 148.165C62.7581 149.265 62.7581 151.043 63.8578 152.142C64.4062 152.691 65.1262 152.966 65.8462 152.966C66.5662 152.966 67.2834 152.693 67.8346 152.142L152.175 67.8016C153.275 66.7019 153.275 64.9244 152.175 63.8248ZM82.7127 63.0316C71.8452 63.0316 63 71.8713 63 82.7359C63 93.6033 71.8452 102.446 82.7127 102.446C93.5773 102.446 102.42 93.6061 102.42 82.7359C102.42 71.8713 93.5773 63.0316 82.7127 63.0316ZM82.7127 96.8236C74.9446 96.8236 68.625 90.5067 68.625 82.7387C68.625 74.9762 74.9446 68.6594 82.7127 68.6594C90.4779 68.6594 96.7947 74.9762 96.7947 82.7387C96.7947 90.5067 90.4779 96.8236 82.7127 96.8236ZM133.259 113.58C122.394 113.58 113.551 122.423 113.551 133.287C113.551 144.155 122.394 153 133.259 153C144.126 153 152.966 144.155 152.966 133.287C152.966 122.423 144.123 113.58 133.259 113.58ZM133.259 147.375C125.493 147.375 119.176 141.055 119.176 133.287C119.176 125.522 125.493 119.205 133.259 119.205C141.024 119.205 147.341 125.522 147.341 133.287C147.341 141.055 141.024 147.375 133.259 147.375Z" fill="black"/>
</g>
<defs>
<clipPath id="clip0_265_1925">
<rect width="90" height="90" fill="white" transform="translate(63 63)"/>
</clipPath>
</defs>
</svg>
