<svg width="48" height="48" viewBox="0 0 48 48" fill="none" xmlns="http://www.w3.org/2000/svg">
<circle cx="24" cy="24" r="23.75" stroke="#202020" stroke-width="0.5"/>
<path fill-rule="evenodd" clip-rule="evenodd" d="M33.6881 31.7708C33.6881 31.9184 33.3929 32.0365 33.2453 32.2431C32.8444 32.6888 32.4102 33.1033 31.9464 33.483C31.0584 33.9485 30.0707 34.1916 29.0681 34.1916C28.0655 34.1916 27.0779 33.9485 26.1899 33.483C23.6749 32.3361 21.3931 30.7348 19.4593 28.7597C17.4752 26.8335 15.8727 24.55 14.736 22.0291C14.2527 21.1202 14 20.1065 14 19.0771C14 18.0477 14.2527 17.034 14.736 16.1251C15.1079 15.6544 15.523 15.2195 15.9759 14.8262L16.4777 14.3834C16.5884 14.2625 16.7229 14.1661 16.8728 14.1001C17.0228 14.0341 17.1848 14 17.3486 14C17.5124 14 17.6744 14.0341 17.8243 14.1001C17.9743 14.1661 18.1088 14.2625 18.2194 14.3834L21.4667 17.6011C21.5854 17.719 21.6796 17.8593 21.7439 18.0138C21.8082 18.1684 21.8413 18.3341 21.8413 18.5014C21.8413 18.6688 21.8082 18.8345 21.7439 18.989C21.6796 19.1435 21.5854 19.2838 21.4667 19.4018L20.5811 20.2579C20.2891 20.5511 20.0997 20.9309 20.0412 21.3405C19.9827 21.7501 20.0581 22.1677 20.2563 22.531C21.4738 24.8057 23.3315 26.6736 25.5995 27.9037C25.968 28.089 26.3853 28.1545 26.7928 28.091C27.2004 28.0275 27.5779 27.8381 27.8726 27.5494L28.7582 26.6638C28.8736 26.546 29.0114 26.4524 29.1635 26.3885C29.3155 26.3246 29.4788 26.2917 29.6438 26.2917C29.8087 26.2917 29.972 26.3246 30.1241 26.3885C30.2762 26.4524 30.414 26.546 30.5294 26.6638L33.7471 29.911C33.8713 30.0338 33.9688 30.181 34.0335 30.3432C34.0982 30.5054 34.1287 30.6792 34.1232 30.8538C34.1177 31.0284 34.0762 31.1999 34.0013 31.3577C33.9264 31.5155 33.8198 31.6561 33.6881 31.7708Z" fill="#202020"/>
</svg>
