<svg width="25" height="25" viewBox="0 0 25 25" fill="none" xmlns="http://www.w3.org/2000/svg">
<path d="M11.0767 3.22109L12.5 0.740878L13.9233 3.22109C14.2058 3.7134 14.8481 3.86023 15.3165 3.53958L17.699 1.90853L17.8841 4.7309C17.9215 5.30209 18.4417 5.71761 19.007 5.62797L21.862 5.17534L20.7885 7.78014C20.5681 8.31491 20.8602 8.9227 21.4155 9.08462L24.1679 9.88723L22.0527 11.7741C21.619 12.1609 21.619 12.8391 22.0527 13.2259L24.1679 15.1127L21.4155 15.9153C20.8602 16.0772 20.5681 16.685 20.7885 17.2198L21.862 19.8246L19.007 19.372C18.4417 19.2823 17.9215 19.6978 17.8841 20.269L17.699 23.0914L15.3165 21.4604C14.8481 21.1397 14.2058 21.2865 13.9233 21.7788L12.5 24.2591L11.0767 21.7788C10.7942 21.2865 10.1519 21.1397 9.68351 21.4603L7.30102 23.0914L7.11592 20.269C7.07846 19.6978 6.55832 19.2823 5.99296 19.372L3.13802 19.8246L4.21154 17.2198C4.43193 16.685 4.13978 16.0772 3.5845 15.9153L0.832054 15.1127L2.94734 13.2259C3.38097 12.8391 3.38097 12.1609 2.94734 11.7741L0.832053 9.88723L3.5845 9.08462C4.13978 8.9227 4.43193 8.31491 4.21154 7.78014L3.13802 5.17534L5.99297 5.62797C6.55832 5.7176 7.07846 5.30209 7.11592 4.7309L7.30102 1.90853L9.68351 3.53958L9.96596 3.127L9.68351 3.53958C10.1519 3.86023 10.7942 3.71339 11.0767 3.22109Z" stroke="#202020"/>
</svg>
