<svg width="220" height="224" viewBox="0 0 220 224" fill="none" xmlns="http://www.w3.org/2000/svg">
<path d="M92.334 32.0883L110 1.01175L127.666 32.0883C127.948 32.5846 128.595 32.7323 129.065 32.4078L158.587 12.0046L160.899 47.5917C160.936 48.1637 161.457 48.5797 162.023 48.4891L197.548 42.8034L184.056 75.8523C183.838 76.3857 184.129 76.9904 184.682 77.1531L219.168 87.3047L192.546 111.277C192.116 111.664 192.116 112.336 192.546 112.723L219.168 136.695L184.682 146.847C184.129 147.01 183.838 147.614 184.056 148.148L197.548 181.197L162.023 175.511C161.457 175.42 160.936 175.836 160.899 176.408L158.587 211.995L129.065 191.592C128.595 191.268 127.948 191.415 127.666 191.912L110 222.988L92.334 191.912C92.0519 191.415 91.405 191.268 90.9353 191.592L61.4129 211.995L59.1009 176.408C59.0638 175.836 58.5425 175.42 57.9765 175.511L22.452 181.197L35.9442 148.148C36.162 147.614 35.871 147.01 35.3184 146.847L0.832472 136.695L27.4545 112.723C27.8836 112.336 27.8835 111.664 27.4545 111.277L27.1199 111.649L27.4545 111.277L0.832483 87.3047L35.3183 77.1531C35.871 76.9904 36.162 76.3857 35.9442 75.8523L22.452 42.8034L57.9765 48.4891C58.5426 48.5797 59.0638 48.1637 59.1009 47.5917L61.4129 12.0046L90.9353 32.4078C91.405 32.7323 92.0519 32.5846 92.334 32.0883Z" fill="white" stroke="#202020"/>
</svg>
