<svg width="24" height="24" viewBox="0 0 24 24" fill="none" xmlns="http://www.w3.org/2000/svg">
<circle cx="12" cy="12" r="11.75" stroke="#202020" stroke-width="0.5"/>
<path d="M5 12.7432C6.3836 11.8627 7.38985 11.2338 8.45899 10.6049C10.9746 9.22131 13.4274 7.83772 15.8801 6.32835C16.8235 5.76233 17.075 5.8881 17.075 7.02013C17.0121 7.83771 16.8863 8.59241 16.7606 9.40999C16.3832 11.7369 15.943 14.0639 15.5656 16.3909C15.4399 17.0827 15.1883 17.2713 14.5594 16.894C14.2449 16.7053 13.9305 16.6424 13.616 16.5166C11.9809 15.8248 11.7922 15.8248 10.5973 17.1455C10.3457 17.3971 10.2828 17.7744 9.7797 17.8373C9.59102 16.6424 9.33946 15.5733 10.2199 14.5041C11.1004 13.3721 11.918 12.303 12.8613 11.1709C13.1129 10.8565 13.3016 10.542 13.4274 10.1647C11.9809 11.108 10.5344 12.1143 9.33946 13.3721C8.89923 13.8752 8.52188 13.9381 7.89298 13.6865C7.0754 13.3721 6.19492 13.1205 5 12.7432Z" fill="#202020"/>
</svg>
