<svg width="24" height="24" viewBox="0 0 24 24" fill="none" xmlns="http://www.w3.org/2000/svg">
<circle cx="12" cy="12" r="11.75" stroke="#202020" stroke-width="0.5"/>
<path d="M12.1733 18.1487C11.5902 18.0904 10.9487 18.1488 10.3655 17.9155C9.4324 17.5073 8.49932 17.5072 7.56623 18.0904C7.33296 18.2071 7.04137 18.382 6.8081 18.0904C6.63315 17.9155 6.74979 17.6239 6.8081 17.4489C7.33296 16.2826 7.04137 15.2912 6.57483 14.1248C5.64175 11.8504 5.75838 9.63436 7.56623 7.76819C9.37408 5.96033 11.6485 5.66875 14.0395 6.31024C14.7976 6.54351 15.4391 7.01004 16.0223 7.59322C18.8216 10.5674 18.9382 15.5828 14.6227 17.6822C13.8062 18.0904 12.9898 18.0904 12.1733 18.1487ZM7.56623 17.3906C8.79091 16.4575 9.95726 17.099 11.1236 17.274C12.8148 17.5073 14.4477 17.4489 15.8474 16.1659C17.3053 14.7663 17.7135 12.3753 17.0137 10.4508C16.139 8.05976 14.1561 6.77678 11.9401 6.77678C9.37408 6.77678 6.69147 8.87621 6.8081 11.3839C6.86642 12.3753 6.92474 13.3667 7.4496 14.2414C8.03278 15.1745 8.14941 16.1076 7.56623 17.3906Z" fill="#202020"/>
<path d="M12.5233 13.425C12.5816 13.3667 12.6982 13.3084 12.7565 13.25C12.9898 12.9001 13.1064 12.4336 13.6896 12.5502C14.2145 12.7252 14.681 13.1334 14.856 13.6583C15.0309 14.1831 14.681 14.533 14.3311 14.8246C13.573 15.4078 12.8149 15.2328 12.115 14.8829C10.5405 14.0082 9.66569 12.5502 9.14083 10.859C8.96588 10.2175 9.19915 9.69266 9.84064 9.34275C10.2489 9.10948 10.5988 9.10948 10.832 9.45939C11.1819 9.92593 11.9401 10.3342 11.2986 11.0923C11.007 11.4422 11.1236 11.7921 11.3569 12.0837C11.6485 12.6086 11.9401 13.1334 12.5233 13.425Z" fill="#202020"/>
</svg>
