<svg width="36" height="36" viewBox="0 0 36 36" fill="none" xmlns="http://www.w3.org/2000/svg">
<circle cx="18" cy="18" r="17.625" stroke="#B0B0B0" stroke-width="0.75"/>
<path d="M23.2498 12.75C23.0858 12.5859 22.8632 12.4938 22.6312 12.4938C22.3992 12.4938 22.1767 12.5859 22.0126 12.75L17.9998 16.7627L13.9871 12.75C13.823 12.5859 13.6005 12.4938 13.3685 12.4938C13.1364 12.4938 12.9139 12.5859 12.7498 12.75C12.5858 12.914 12.4937 13.1366 12.4937 13.3686C12.4937 13.6006 12.5858 13.8231 12.7498 13.9872L16.7626 18L12.7498 22.0127C12.5858 22.1768 12.4937 22.3993 12.4937 22.6313C12.4937 22.8634 12.5858 23.0859 12.7498 23.25C12.9139 23.414 13.1364 23.5062 13.3685 23.5062C13.6005 23.5062 13.823 23.414 13.9871 23.25L17.9998 19.2372L22.0126 23.25C22.1767 23.414 22.3992 23.5062 22.6312 23.5062C22.8632 23.5062 23.0858 23.414 23.2498 23.25C23.4139 23.0859 23.506 22.8634 23.506 22.6313C23.506 22.3993 23.4139 22.1768 23.2498 22.0127L19.2371 18L23.2498 13.9872C23.4139 13.8231 23.506 13.6006 23.506 13.3686C23.506 13.1366 23.4139 12.914 23.2498 12.75Z" fill="#747474"/>
</svg>
