<svg width="36" height="36" viewBox="0 0 36 36" fill="none" xmlns="http://www.w3.org/2000/svg">
<circle cx="18" cy="18" r="17.625" stroke="#B0B0B0" stroke-width="0.75"/>
<path d="M22.375 17.125H18.875V13.625C18.875 13.3929 18.7828 13.1704 18.6187 13.0063C18.4546 12.8422 18.2321 12.75 18 12.75C17.7679 12.75 17.5454 12.8422 17.3813 13.0063C17.2172 13.1704 17.125 13.3929 17.125 13.625V17.125H13.625C13.3929 17.125 13.1704 17.2172 13.0063 17.3813C12.8422 17.5454 12.75 17.7679 12.75 18C12.75 18.2321 12.8422 18.4546 13.0063 18.6187C13.1704 18.7828 13.3929 18.875 13.625 18.875H17.125V22.375C17.125 22.6071 17.2172 22.8296 17.3813 22.9937C17.5454 23.1578 17.7679 23.25 18 23.25C18.2321 23.25 18.4546 23.1578 18.6187 22.9937C18.7828 22.8296 18.875 22.6071 18.875 22.375V18.875H22.375C22.6071 18.875 22.8296 18.7828 22.9937 18.6187C23.1578 18.4546 23.25 18.2321 23.25 18C23.25 17.7679 23.1578 17.5454 22.9937 17.3813C22.8296 17.2172 22.6071 17.125 22.375 17.125Z" fill="#747474"/>
</svg>
